<svg xmlns="http://www.w3.org/2000/svg" width="500" height="500" viewBox="-2.0 -2.0 4.0 4.0" >
<polygon points="1.0,0.0 0.978147600734,0.207911690818 0.913545457643,0.406736643076 0.809016994375,0.587785252292 0.669130606359,0.743144825477 0.5,0.866025403784 0.309016994375,0.951056516295 0.104528463268,0.994521895368 -0.104528463268,0.994521895368 -0.309016994375,0.951056516295 -0.5,0.866025403784 -0.669130606359,0.743144825477 -0.809016994375,0.587785252292 -0.913545457643,0.406736643076 -0.978147600734,0.207911690818 -1.0,1.22464679915e-16 -0.978147600734,-0.207911690818 -0.913545457643,-0.406736643076 -0.809016994375,-0.587785252292 -0.669130606359,-0.743144825477 -0.5,-0.866025403784 -0.309016994375,-0.951056516295 -0.104528463268,-0.994521895368 0.104528463268,-0.994521895368 0.309016994375,-0.951056516295 0.5,-0.866025403784 0.669130606359,-0.743144825477 0.809016994375,-0.587785252292 0.913545457643,-0.406736643076 0.978147600734,-0.207911690818 " style="fill:rgb(0,255,0);fill-opacity:1.0;stroke-width:0"/>
</svg>
