<?xml version="1.0" encoding="UTF-8" standalone="no"?>
<!-- Created with Inkscape (http://www.inkscape.org/) -->

<svg
   xmlns:dc="http://purl.org/dc/elements/1.1/"
   xmlns:cc="http://creativecommons.org/ns#"
   xmlns:rdf="http://www.w3.org/1999/02/22-rdf-syntax-ns#"
   xmlns:svg="http://www.w3.org/2000/svg"
   xmlns="http://www.w3.org/2000/svg"
   xmlns:sodipodi="http://sodipodi.sourceforge.net/DTD/sodipodi-0.dtd"
   xmlns:inkscape="http://www.inkscape.org/namespaces/inkscape"
   width="210mm"
   height="297mm"
   viewBox="0 0 744.09448819 1052.3622047"
   id="svg3550"
   version="1.1"
   inkscape:version="0.91 r13725"
   sodipodi:docname="butterfly_sym.svg">
  <defs
     id="defs3552" />
  <sodipodi:namedview
     id="base"
     pagecolor="#ffffff"
     bordercolor="#666666"
     borderopacity="1.0"
     inkscape:pageopacity="0.0"
     inkscape:pageshadow="2"
     inkscape:zoom="0.90507812"
     inkscape:cx="375"
     inkscape:cy="696.78032"
     inkscape:document-units="px"
     inkscape:current-layer="layer1"
     showgrid="false"
     inkscape:window-width="1536"
     inkscape:window-height="809"
     inkscape:window-x="-8"
     inkscape:window-y="-8"
     inkscape:window-maximized="1" />
  <metadata
     id="metadata3555">
    <rdf:RDF>
      <cc:Work
         rdf:about="">
        <dc:format>image/svg+xml</dc:format>
        <dc:type
           rdf:resource="http://purl.org/dc/dcmitype/StillImage" />
        <dc:title></dc:title>
      </cc:Work>
    </rdf:RDF>
  </metadata>
  <g
     inkscape:label="Layer 1"
     inkscape:groupmode="layer"
     id="layer1">
    <path
       style="fill:#000000"
       d="m 214.23258,498.88426 c -3.33807,-1.40212 -6.71602,-2.91938 -7.50656,-3.37165 -0.79053,-0.45228 -4.59463,-1.45779 -8.45356,-2.23445 -6.50514,-1.30927 -7.52858,-1.30901 -14.04998,0.003 -6.08501,1.22471 -7.22526,1.25083 -8.45356,0.19367 -0.78089,-0.67209 -2.46684,-1.46874 -3.74658,-1.77031 -2.8509,-0.67178 -5.17936,-3.82928 -10.24519,-13.89292 -4.44608,-8.83248 -6.77265,-10.83705 -14.32667,-12.34393 -3.97197,-0.79234 -5.60553,-1.6748 -8.40581,-4.54093 -3.39611,-3.47598 -3.51278,-3.8014 -5.0917,-14.20204 -1.5518,-10.222 -3.12314,-15.60857 -5.32032,-18.23825 -0.56499,-0.6762 -1.11088,-1.79544 -1.2131,-2.48719 -0.10226,-0.69177 -1.9205,-3.09978 -4.04062,-5.35116 -5.02041,-5.33118 -10.15556,-15.62403 -10.15556,-20.35569 0,-6.60927 -4.15656,-16.48058 -10.62477,-25.2325 -1.8591,-2.5155 -3.952256,-4.79167 -4.651449,-5.05818 -1.555576,-0.59293 -4.665517,-6.45822 -4.665517,-8.79908 0,-0.93826 -0.332079,-1.90977 -0.737946,-2.15892 -0.405867,-0.24916 -0.959474,-4.14138 -1.23024,-8.6494 -0.270766,-4.50802 -1.037415,-9.26823 -1.703657,-10.57826 -2.253075,-4.43023 -3.689896,-6.67841 -6.082273,-9.51684 -2.179993,-2.58645 -2.384327,-3.44028 -2.384327,-9.96291 0,-4.11996 0.598703,-9.11029 1.417086,-11.81168 0.779395,-2.57272 1.370566,-6.05213 1.31369,-7.732 -0.09015,-2.66231 0.646117,-3.82295 5.73593,-9.04271 12.365883,-12.68158 22.557483,-20.12714 39.653563,-28.96924 l 11.27142,-5.82959 -8.02005,0.53949 c -7.47952,0.50315 -8.02375,0.42924 -8.07501,-1.09657 -0.0473,-1.40884 -0.16386,-1.36694 -0.83908,0.30164 -0.73475,1.81568 -1.29103,1.93698 -8.83213,1.92597 -9.15633,-0.0133 -11.94962,-0.53739 -11.94962,-2.24171 0,-0.65526 -0.37793,-1.19138 -0.83983,-1.19138 -0.46189,0 -0.61523,0.58132 -0.34075,1.29181 0.5966,1.54427 -1.47959,1.74989 -2.947429,0.2919 -0.553677,-0.54996 -2.87515,-1.64005 -5.158834,-2.42241 -3.133676,-1.07356 -4.940931,-2.45755 -7.367859,-5.64234 -1.768642,-2.32093 -3.971066,-4.49742 -4.894281,-4.83664 -2.33224,-0.85697 -5.668945,-5.6147 -7.089538,-10.10878 -0.655721,-2.07441 -2.671392,-5.30084 -4.479282,-7.16985 -4.786189,-4.94803 -6.207053,-10.54587 -5.490184,-21.62988 l 0.567,-8.76676 -3.456436,-5.79667 c -4.204091,-7.05051 -5.755348,-13.32966 -4.979472,-20.15585 1.60452,-14.11677 1.597824,-14.50646 -0.375952,-21.88103 -1.07225,-4.00617 -2.433684,-8.25283 -3.025408,-9.437 -0.591736,-1.18416 -1.297543,-5.84479 -1.568474,-10.35694 -0.597997,-9.9594 -1.417298,-15.36245 -2.423139,-15.97991 -0.414235,-0.25429 -0.753151,-1.15974 -0.753151,-2.01209 0,-0.85235 -1.959219,-3.63917 -4.35382,-6.19296 -2.675488,-2.85332 -4.7092,-5.971147 -5.275729,-8.088053 C 36.033967,86.832513 30.326857,78.65259 22.747803,73.622922 19.178909,71.254509 15.119804,63.795737 15.486471,60.279909 15.625337,58.948329 15.261519,58.471217 14.235436,58.639286 13.19083,58.810383 12.286915,57.544415 10.984064,54.08562 8.7618814,48.186171 8.7065231,44.568623 10.768456,39.994068 c 4.020422,-8.919625 9.281029,-14.12925 17.919305,-17.745677 18.664654,-7.813976 34.41404,-10.44478 58.021202,-9.691986 15.036647,0.479497 19.513487,1.237972 42.120977,7.136263 21.53863,5.619431 30.93851,9.279131 55.42438,21.578683 29.29755,14.716523 29.94459,15.105813 45.65073,27.465483 12.91298,10.161642 24.28131,20.84437 37.1175,34.879046 19.33766,21.14316 24.92876,28.18844 43.74107,55.11753 15.3507,21.97391 33.09024,50.15343 33.09024,52.56434 0,1.31997 3.21062,0.96349 4.70674,-0.5226 1.86644,-1.8539 1.74873,-2.32616 -1.23861,-4.97004 -4.64356,-4.10964 -2.82026,-9.51431 3.64937,-10.8175 2.40206,-0.48386 2.8951,-0.99617 3.11724,-3.23912 0.21598,-2.18089 -0.6475,-3.7381 -4.75856,-8.5817 -2.76232,-3.25455 -5.89946,-6.61948 -6.9714,-7.47764 -1.07194,-0.85815 -4.37882,-4.53982 -7.34862,-8.1815 -2.96981,-3.64167 -5.62016,-6.81499 -5.88967,-7.05183 -1.45815,-1.28127 -7.81273,-10.92962 -14.72443,-22.35652 -4.30705,-7.12072 -9.1951,-14.72186 -10.86233,-16.89138 -3.29799,-4.29161 -3.70024,-5.53508 -1.7905,-5.53508 1.56719,0 10.27058,12.18792 12.29869,17.22265 0.83901,2.08282 2.72029,5.63555 4.1806,7.89494 1.46032,2.25941 4.18899,6.54266 6.06371,9.51837 5.16636,8.20046 10.53487,14.98347 18.25526,23.06518 3.84615,4.02618 8.21914,8.82354 9.71773,10.66084 2.25203,2.76097 3.10202,3.24648 4.89936,2.7984 1.61469,-0.40254 2.24685,-0.17551 2.45507,0.8817 0.19737,1.00207 1.54801,-0.082 4.55973,-3.65962 2.3536,-2.79589 7.23065,-8.18487 10.8379,-11.9755 3.60722,-3.79063 7.62587,-8.2474 8.93031,-9.90393 6.26107,-7.95103 16.68896,-24.48655 19.18676,-30.42451 1.67761,-3.98815 10.7622,-16.93973 11.88198,-16.93973 1.68775,0 0.66886,2.5841 -3.2713,8.29667 -4.25829,6.17381 -14.99609,23.49533 -14.99609,24.19075 0,0.22063 -2.31937,3.56182 -5.15417,7.42486 -5.10006,6.94999 -9.71938,12.39987 -22.85039,26.95899 -7.94895,8.81346 -8.43752,11.01632 -2.86619,12.92307 4.73659,1.62106 5.72683,2.66721 5.72683,6.05017 0,2.17814 -0.67582,3.57046 -2.56498,5.28435 -1.41088,1.27999 -2.28863,2.75011 -1.95082,3.26737 0.681,1.04271 4.5305,3.22434 4.8967,2.77509 0.12779,-0.15678 1.32566,-2.22279 2.66189,-4.59113 5.6692,-10.04798 17.31385,-28.89481 21.55027,-34.87904 2.51491,-3.55249 8.22052,-11.69094 12.67913,-18.08544 4.4586,-6.39449 8.91848,-12.77813 9.91083,-14.18589 4.90921,-6.96418 21.12482,-26.35375 31.35045,-37.48679 21.42981,-23.331473 43.05276,-41.180472 62.79274,-51.833252 34.26868,-18.493292 54.24664,-26.709324 80.20045,-32.98282 20.14684,-4.869863 25.96484,-5.677035 41.30895,-5.731075 25.67662,-0.09048 45.10487,4.167626 60.24284,13.203337 7.15511,4.270819 14.53563,17.614592 12.88615,23.297776 -1.89787,6.538962 -3.3479,9.26307 -4.93071,9.26307 -1.10429,0 -1.58967,0.510988 -1.43161,1.507119 0.41711,2.628454 -3.06033,10.686481 -5.32287,12.334304 -3.26345,2.376818 -6.76888,5.279107 -9.28674,7.688854 -2.48438,2.37773 -8.06338,13.574427 -8.06338,16.182718 0,1.843935 -5.29142,9.135669 -7.53422,10.382379 -2.38305,1.32466 -4.74884,10.21893 -5.41848,20.37091 -0.44524,6.74975 -1.27893,11.33031 -2.89986,15.93241 -3.74996,10.64679 -4.15745,14.79311 -2.33052,23.71373 1.56191,7.62649 -0.52489,17.26848 -5.4117,25.00473 -2.70305,4.27915 -3.32456,8.16624 -2.43933,15.25631 0.479,3.83636 0.34892,7.12343 -0.41026,10.36739 -1.29268,5.52362 -1.54076,5.98571 -5.50883,10.2616 -1.64316,1.77064 -3.65668,5.18255 -4.47448,7.58206 -1.4851,4.35743 -5.47065,9.43709 -7.40442,9.43709 -0.56272,0 -2.06599,1.56531 -3.34062,3.47846 -2.38869,3.58533 -6.81294,6.8472 -9.29495,6.85285 -0.77612,0.001 -1.89685,0.58454 -2.49049,1.29503 -1.21067,1.44898 -4.33517,1.75933 -4.33517,0.43061 0,-0.47366 -0.39015,-0.86121 -0.86702,-0.86121 -0.47687,0 -0.86703,0.58132 -0.86703,1.29181 0,0.8126 -0.88451,1.32628 -2.38434,1.3847 -1.31139,0.0511 -4.33517,0.19217 -6.7195,0.31354 -5.75206,0.2928 -11.32638,-0.70326 -11.05465,-1.97533 0.11921,-0.5581 -0.17341,-1.01472 -0.65028,-1.01472 -0.47687,0 -0.86703,0.57284 -0.86703,1.27297 0,1.05854 -1.16838,1.18913 -6.93625,0.77527 -3.81495,-0.27373 -6.93626,-0.28504 -6.93626,-0.0251 0,0.25989 2.63361,1.71578 5.85246,3.23528 15.77611,7.44736 31.37127,18.5046 43.06066,30.53076 5.11667,5.26408 6.85217,8.14047 6.09469,10.10121 -0.23849,0.61728 0.15998,2.7934 0.88546,4.83583 0.72549,2.04244 1.12026,4.03302 0.87729,4.42352 -0.24297,0.3905 -0.0244,0.96624 0.48582,1.27942 0.58996,0.36219 0.80309,3.37093 0.58556,8.26623 -0.29964,6.74278 -0.60994,7.98722 -2.50336,10.03992 -5.01352,5.43522 -8.95587,16.47774 -7.87952,22.07051 0.24254,1.2603 -0.1552,3.92547 -0.8839,5.92261 -0.72868,1.99714 -1.56688,4.70658 -1.86266,6.02098 -0.29577,1.3144 -2.1406,4.0272 -4.09963,6.02847 -5.14394,5.25488 -7.39314,8.3725 -10.21542,14.15965 -3.21092,6.58408 -5.25353,13.45101 -5.25353,17.66158 0,4.31776 -4.96125,13.59376 -10.04608,18.78305 -2.10454,2.14776 -3.83883,4.47303 -3.854,5.16726 -0.0152,0.69423 -0.61001,2.02754 -1.32187,2.96292 -2.01238,2.64424 -4.56992,12.16942 -5.53104,20.59956 -0.86069,7.54912 -0.93017,7.7138 -4.81492,11.41105 -2.16789,2.06326 -4.70047,3.75139 -5.62794,3.75139 -0.92747,0 -3.84898,0.80372 -6.49226,1.78606 -5.63863,2.09551 -7.38997,4.16445 -12.46256,14.72258 -3.47593,7.23484 -6.75822,11.05011 -9.50643,11.05011 -0.73266,0 -2.02652,0.62421 -2.87524,1.38714 -1.41879,1.27537 -1.87334,1.27537 -5.64166,0 -6.89761,-2.33448 -17.65536,-1.46944 -25.03193,2.01285 -3.92646,1.85357 -14.54387,6.07334 -15.28122,6.07334 -0.43649,0 -4.19974,-1.62051 -8.36277,-3.60112 -5.98819,-2.84893 -8.93775,-4.96254 -14.1215,-10.11923 -3.60379,-3.58497 -10.30968,-9.94492 -14.90199,-14.13323 -4.6883,-4.27588 -10.18175,-10.31735 -12.52774,-13.77749 -3.93802,-5.80827 -4.53375,-6.30248 -10.36761,-8.60095 l -6.18953,-2.43859 -1.91454,-5.3142 c -1.05299,-2.92282 -3.7276,-8.60835 -5.94354,-12.63451 -2.21596,-4.02616 -4.34124,-8.09538 -4.72286,-9.04271 -0.38162,-0.94733 -1.59196,-3.07884 -2.68963,-4.73667 -5.71196,-8.6268 -10.06245,-15.68501 -13.00529,-21.09966 -1.80205,-3.31566 -6.30321,-10.48525 -10.00258,-15.9324 -7.48285,-11.01817 -14.79266,-23.4576 -14.79266,-25.17331 0,-0.61553 -0.82538,-2.64877 -1.83416,-4.51831 -1.25603,-2.32773 -2.12138,-6.25987 -2.74537,-12.47481 -0.50115,-4.99161 -1.04539,-9.24112 -1.20941,-9.44338 -0.164,-0.20226 -0.78188,0.23654 -1.37304,0.97509 -1.25167,1.56375 -8.67805,2.46039 -14.74878,1.78072 -3.69801,-0.41402 -4.18783,-0.72896 -4.8936,-3.1465 l -0.78426,-2.68641 -0.21392,3.44484 c -0.11768,1.89467 -0.33642,4.41371 -0.48616,5.59787 -0.14973,1.18417 -0.4387,4.09076 -0.64215,6.45909 -0.46484,5.41106 -1.10328,7.27663 -6.18931,18.08543 -2.12937,4.52534 -8.68404,15.59218 -9.94653,16.79361 -0.69935,0.66555 -7.02809,10.08666 -8.59352,12.79254 -0.76798,1.32746 -2.91689,5.09603 -4.77535,8.37459 -1.85847,3.27855 -5.72893,9.6427 -8.60103,14.14253 -5.48226,8.58926 -15.77514,28.01342 -18.12774,34.20962 -1.0797,2.84368 -2.10696,3.94128 -4.71118,5.03369 -7.90378,3.31548 -9.46822,4.53161 -13.63909,10.6025 -2.33168,3.39387 -7.74357,9.35942 -12.0264,13.25678 -4.28284,3.89737 -11.265,10.47713 -15.51589,14.62171 -4.25091,4.14457 -8.29172,7.53559 -8.97958,7.53559 -0.68786,0 -3.41415,1.16264 -6.05841,2.58364 -2.64427,1.42099 -5.67685,2.56974 -6.73904,2.55275 -1.0622,-0.017 -4.66243,-1.17807 -8.00051,-2.58021 z"
       id="path3515"
       inkscape:connector-curvature="0" />
  </g>
</svg>
