<?xml version="1.0" encoding="UTF-8" standalone="no"?>
<!-- Created with Inkscape (http://www.inkscape.org/) -->

<svg
   xmlns:dc="http://purl.org/dc/elements/1.1/"
   xmlns:cc="http://creativecommons.org/ns#"
   xmlns:rdf="http://www.w3.org/1999/02/22-rdf-syntax-ns#"
   xmlns:svg="http://www.w3.org/2000/svg"
   xmlns="http://www.w3.org/2000/svg"
   xmlns:sodipodi="http://sodipodi.sourceforge.net/DTD/sodipodi-0.dtd"
   xmlns:inkscape="http://www.inkscape.org/namespaces/inkscape"
   width="210mm"
   height="297mm"
   viewBox="0 0 744.09448819 1052.3622047"
   id="svg2"
   version="1.1"
   inkscape:version="0.91 r13725"
   sodipodi:docname="orchid_3parts.svg">
  <defs
     id="defs4" />
  <sodipodi:namedview
     id="base"
     pagecolor="#ffffff"
     bordercolor="#666666"
     borderopacity="1.0"
     inkscape:pageopacity="0.0"
     inkscape:pageshadow="2"
     inkscape:zoom="0.63418639"
     inkscape:cx="585.01333"
     inkscape:cy="620.74913"
     inkscape:document-units="px"
     inkscape:current-layer="layer1"
     showgrid="false"
     inkscape:window-width="1536"
     inkscape:window-height="803"
     inkscape:window-x="-8"
     inkscape:window-y="-8"
     inkscape:window-maximized="1" />
  <metadata
     id="metadata7">
    <rdf:RDF>
      <cc:Work
         rdf:about="">
        <dc:format>image/svg+xml</dc:format>
        <dc:type
           rdf:resource="http://purl.org/dc/dcmitype/StillImage" />
        <dc:title></dc:title>
      </cc:Work>
    </rdf:RDF>
  </metadata>
  <g
     inkscape:label="Layer 1"
     inkscape:groupmode="layer"
     id="layer1">
    <path
       style="fill:#ffaaaa;fill-rule:evenodd;stroke:#000000;stroke-width:1px;stroke-linecap:butt;stroke-linejoin:miter;stroke-opacity:1"
       d="M 251.27291,114.96289 C 263.78616,75.95839 266.6908,49.7629 297.88198,35.53997 341.35329,6.7026899 407.99196,22.32361 431.24126,69.84923 c 26.15008,31.7312 18.45669,75.51707 28.82406,112.82327 7.81745,33.99374 0.74743,68.20377 -7.68878,101.08091 -15.47021,28.68294 -5.43691,62.2118 27.93215,70.4168 25.63915,16.88189 58.48631,24.69618 75.32188,51.86519 23.81999,24.90767 53.25972,51.52673 52.20167,89.13604 1.20321,23.98337 -16.00263,52.67175 -42.95568,48.51453 -37.50478,-3.50692 -74.00305,-14.11728 -110.32475,-23.39082 -47.32875,-16.71455 -86.52709,-55.14089 -101.22257,-103.49217 -7.77819,-32.15589 -11.82864,10.69704 -18.43656,21.03857 -6.12005,24.27898 -10.88708,52.8011 -34.75778,66.36306 -32.33021,27.16202 -76.4039,28.5925 -114.78707,41.45576 -30.70385,5.25314 -67.78546,-8.39845 -81.00229,-37.96097 -11.834317,-36.06726 13.26101,-69.72744 31.98815,-98.27221 21.93113,-35.25073 39.66128,-75.46039 74.76502,-99.86654 32.01109,-22.25323 22.8758,-61.26327 25.50456,-94.04704 2.14273,-33.91917 9.30896,-66.42584 14.66964,-100.55072 z"
       id="path3349"
       inkscape:connector-curvature="0"
       sodipodi:nodetypes="ccccccccccccccccccc" />
    <path
       style="fill:#ff2a2a;fill-rule:evenodd;stroke:#000000;stroke-width:1px;stroke-linecap:butt;stroke-linejoin:miter;stroke-opacity:1"
       d="m 34.966283,261.0256 c 15.13785,-34.39722 17.69353,-54.93965 44.48892,-71.20892 23.251187,-18.09579 45.317797,-38.17556 69.791297,-54.42713 30.11928,-14.24936 64.42749,-12.45538 96.63882,-17.51968 30.30207,1.09609 53.28162,24.51823 73.97524,43.92838 21.27763,33.71739 -8.04458,69.29916 -9.58284,103.84146 -4.78434,31.87553 18.61661,82.90063 57.3736,62.6285 29.27527,-12.6135 31.34508,-48.28052 24.07311,-75.07527 -5.84176,-30.04264 -24.94167,-58.42197 -20.92961,-89.74181 9.09291,-30.8361 43.33223,-43.8701 71.77763,-50.36047 44.85485,-7.16365 93.33007,5.20747 125.87993,37.79506 32.82399,15.4199 57.01521,40.16782 77.44111,69.36918 25.1599,26.03197 26.19848,62.67379 26.44078,96.5097 2.20902,34.88549 -17.80552,66.32777 -38.32008,92.83078 -20.97607,28.78701 -51.79553,49.68388 -86.8818,56.56847 -25.8148,9.13157 -57.18802,2.97744 -72.41876,-21.50185 -13.88395,-29.41736 -24.12299,-68.93487 -61.27965,-77.18462 -45.84751,-3.1571 -91.9906,3.7451 -137.9458,0.6088 -28.00243,20.94411 -40.92076,54.48383 -57.16047,84.0329 -22.07589,28.69844 -61.34969,19.68993 -91.06331,11.25624 C 82.975423,449.54259 62.991493,404.67916 42.784603,367.07891 23.398048,339.20512 24.60718,305.70403 33.443163,274.86753 c 0.90947,-4.1623 0.93987,-4.37668 0.96561,-9.24263 z"
       id="path3351"
       inkscape:connector-curvature="0"
       sodipodi:nodetypes="cccccccccccccccccccccccc" />
    <path
       style="fill:#ffff00;fill-rule:evenodd;stroke:#000000;stroke-width:1px;stroke-linecap:butt;stroke-linejoin:miter;stroke-opacity:1"
       d="m 347.16141,332.38449 c -13.17669,-2.28047 -23.17843,10.09207 -26.75486,21.40158 -4.95501,9.61846 -8.18369,23.98892 3.28118,30.45874 9.9371,4.91535 23.4284,10.9338 21.73448,24.47834 -1.67233,13.42652 -16.79184,17.34022 -25.94704,24.86744 -11.30568,2.61977 -21.54131,-10.80157 -23.42461,-20.87938 2.5473,-11.71487 11.8669,-21.08769 15.1946,-32.8304 5.13394,-9.81272 0.0683,-21.90809 -10.05085,-25.73647 -10.81684,-5.85778 -21.81669,4.71798 -16.20542,15.70509 1.26178,8.69802 -3.93136,16.59495 -6.03522,24.81801 -3.63724,9.94419 -7.28481,19.82662 -10.39516,29.92842 -5.00701,11.69313 -7.12846,27.2834 2.07444,37.5165 8.47278,7.86009 21.11261,6.31679 31.80673,7.22859 10.52443,-2.37855 26.41202,4.70393 18.42597,17.30649 -5.76536,10.82923 -16.83795,17.40381 -25.27814,26.01783 -3.92661,-14.04242 -7.67325,-17.44473 -14.38547,-23.99924 -5.52088,-10.49051 -3.07105,6.9754 -0.94885,10.15074 8.97605,7.23991 11.51864,18.3905 13.9278,29.01882 1.74554,8.18172 3.51031,18.6485 12.45184,21.93558 17.09559,-0.0513 34.15053,0.23608 51.21915,0.98915 6.72073,-1.34644 20.08287,4.6187 26.31757,-4.77643 9.80414,-7.04873 15.84571,-16.20043 23.46651,-25.88058 5.65252,-10.57419 -12.52637,-13.74349 -13.91921,-22.59112 0.0494,-5.27646 4.02871,-20.01017 -3.1553,-9.11215 -4.98453,5.75072 -14.54455,3.34646 -11.79054,-5.14712 -2.51203,-11.98619 13.07459,-11.77299 20.89433,-14.21392 8.76722,-4.44579 20.38314,-4.1777 26.90294,-12.37309 4.3741,-11.89477 -8.16192,-22.60555 -7.39302,-34.86938 3.15645,-14.03991 -11.77222,-22.21087 -12.79606,-35.18016 -3.30403,-10.26781 -10.6254,-25.56128 1.87089,-32.61481 5.92679,-8.07895 -9.05841,1.90505 -10.76545,4.80751 -9.18147,7.15607 -9.76913,19.47153 -4.0745,28.91027 4.79025,11.90716 11.83232,25.81123 5.41211,38.43825 -4.11456,7.16999 -20.11389,20.37668 -21.49662,5.2975 -2.35486,-12.51918 -8.72617,-23.03466 -17.78328,-31.5313 -3.7817,-11.71868 14.68478,-16.09402 16.09572,-27.81747 2.99894,-11.13428 2.87213,-25.98005 -7.49945,-33.47616 -6.31142,-1.62409 -14.64726,-11.01901 -20.97721,-6.24567 z"
       id="path3353"
       inkscape:connector-curvature="0"
       sodipodi:nodetypes="cccccccccccccccccccccccccccccccccccccc" />
  </g>
</svg>
