<?xml version="1.0" encoding="UTF-8" standalone="no"?>
<!-- Created with Inkscape (http://www.inkscape.org/) -->

<svg
   xmlns:dc="http://purl.org/dc/elements/1.1/"
   xmlns:cc="http://creativecommons.org/ns#"
   xmlns:rdf="http://www.w3.org/1999/02/22-rdf-syntax-ns#"
   xmlns:svg="http://www.w3.org/2000/svg"
   xmlns="http://www.w3.org/2000/svg"
   xmlns:sodipodi="http://sodipodi.sourceforge.net/DTD/sodipodi-0.dtd"
   xmlns:inkscape="http://www.inkscape.org/namespaces/inkscape"
   width="210mm"
   height="297mm"
   viewBox="0 0 744.09448819 1052.3622047"
   id="svg2"
   version="1.1"
   inkscape:version="0.91 r13725"
   sodipodi:docname="flower.svg">
  <defs
     id="defs4" />
  <sodipodi:namedview
     id="base"
     pagecolor="#ffffff"
     bordercolor="#666666"
     borderopacity="1.0"
     inkscape:pageopacity="0.0"
     inkscape:pageshadow="2"
     inkscape:zoom="0.81255131"
     inkscape:cx="97.794221"
     inkscape:cy="654.66651"
     inkscape:document-units="px"
     inkscape:current-layer="layer1"
     showgrid="false"
     inkscape:window-width="1536"
     inkscape:window-height="803"
     inkscape:window-x="-8"
     inkscape:window-y="-8"
     inkscape:window-maximized="1" />
  <metadata
     id="metadata7">
    <rdf:RDF>
      <cc:Work
         rdf:about="">
        <dc:format>image/svg+xml</dc:format>
        <dc:type
           rdf:resource="http://purl.org/dc/dcmitype/StillImage" />
        <dc:title />
      </cc:Work>
    </rdf:RDF>
  </metadata>
  <g
     inkscape:label="Layer 1"
     inkscape:groupmode="layer"
     id="layer1">
    <path
       style="fill:#ffaaaa;fill-rule:evenodd;stroke:#000000;stroke-width:1px;stroke-linecap:butt;stroke-linejoin:miter;stroke-opacity:1"
       d="m 281.39393,85.699296 c 14.97464,-32.851046 30.47199,-44.700545 67.30686,-54.150016 35.01859,6.368622 50.75099,25.233692 59.23199,51.837557 16.72685,38.543733 19.70018,53.289963 22.59594,120.207423 -10.64292,48.76203 -15.25156,74.35722 -34.76399,107.23436 25.14261,13.91465 56.09767,27.75244 84.54396,43.34159 25.63915,16.88189 49.87147,30.84964 75.32188,51.86519 23.81999,24.90767 53.25972,51.52673 52.20167,89.13604 1.20321,23.98337 -28.00187,50.21037 -57.72398,50.36057 -37.50478,-3.50692 -60.15777,-11.6559 -95.55645,-25.23686 -47.32875,-16.71455 -86.52709,-55.14089 -101.22257,-103.49217 -7.77819,-32.15589 -11.82864,10.69704 -18.43656,21.03857 -6.12005,24.27898 -15.50217,47.87833 -34.75778,66.36306 -32.33021,27.16202 -73.32717,40.89942 -117.8638,43.3018 -30.70385,5.25314 -64.70873,-10.24449 -77.92556,-39.80701 -11.834317,-36.06726 4.03083,-74.6502 63.98613,-138.88503 54.26007,-31.55866 86.42238,-37.30895 120.3006,-48.1775 -17.21657,-22.25323 -22.65978,-35.41874 -27.41517,-108.81533 4.60411,-57.30231 14.81615,-91.99736 20.17683,-126.122244 z"
       id="path3349"
       inkscape:connector-curvature="0"
       sodipodi:nodetypes="ccccccccccccccccccc" />
    <path
       style="fill:#ff2a2a;fill-rule:evenodd;stroke:#000000;stroke-width:1px;stroke-linecap:butt;stroke-linejoin:miter;stroke-opacity:1"
       d="m 32.120309,265.48686 c 15.13785,-34.39722 26.631116,-54.17953 47.334894,-75.67018 20.640497,-22.44694 39.226187,-38.17556 69.791297,-54.42713 30.11928,-14.24936 63.96598,-19.83047 96.63882,-17.51968 33.3788,4.62074 59.28577,20.68966 71.36455,48.71465 16.70892,35.6754 -5.43389,64.51289 -6.97215,99.05519 -4.78434,31.87553 18.61661,82.90063 57.3736,62.6285 29.27527,-12.6135 31.34508,-48.28052 24.07311,-75.07527 -5.84176,-30.04264 -24.94167,-58.42197 -20.92961,-89.74181 9.09291,-30.8361 43.33223,-43.8701 71.77763,-50.36047 44.85485,-7.16365 95.07053,9.12351 129.79597,34.31414 29.77818,20.64128 53.09917,43.64874 73.52507,72.8501 21.67898,32.12358 26.19848,62.67379 26.44078,96.5097 2.20902,34.88549 -17.80552,66.32777 -38.32008,92.83078 -20.97607,28.78701 -51.79553,49.68388 -86.8818,56.56847 -25.8148,9.13157 -57.18802,2.97744 -72.41876,-21.50185 -13.88395,-29.41736 -24.12299,-68.93487 -61.27965,-77.18462 -45.84751,-3.1571 -90.68525,-1.9114 -137.9458,0.6088 -33.22381,15.72273 -34.39403,59.2701 -57.16047,84.0329 -32.51865,22.17171 -61.34969,19.68993 -91.06331,11.25624 -44.288977,-13.83273 -66.883598,-56.9557 -87.090488,-94.55595 -13.730058,-27.87379 -13.56233,-47.09073 -12.110496,-80.08094 0,0 0.627669,-10.17117 1.961018,-14.65253 z"
       id="path3351"
       inkscape:connector-curvature="0"
       sodipodi:nodetypes="cccccccccccccccccccccccc" />
    <path
       style="fill:#ffff00;fill-rule:evenodd;stroke:#000000;stroke-width:1px;stroke-linecap:butt;stroke-linejoin:miter;stroke-opacity:1"
       d="m 347.16141,332.38449 c -13.17669,1.10393 -23.17843,10.09207 -26.75486,21.40158 -4.95501,9.61846 -1.04161,18.71475 5.43489,27.07434 9.32175,6.45371 11.70216,6.92124 13.05404,20.46578 -1.67233,13.42652 -10.26511,24.73718 -19.42031,32.2644 -11.30568,2.61977 -22.41154,1.81677 -24.29484,-8.26104 -2.45652,-26.50879 -1.18655,-29.35488 3.01138,-39.79224 7.52707,-19.82037 7.46525,-17.55694 5.61329,-29.43495 -2.33209,-15.21276 -7.89301,-10.94616 -5.10998,-3.00486 -0.47868,9.13314 -11.98099,22.03388 -19.74135,41.56994 -3.63724,9.94419 -5.97947,26.57091 -4.52111,36.23759 1.0846,13.8687 2.66164,19.66888 13.16988,27.29129 21.79908,4.18279 11.10496,3.27099 21.79908,4.18279 10.95955,2.40771 19.45018,11.66577 11.46413,24.26833 -5.76536,10.82923 3.17735,0.43432 -5.26284,9.04834 -3.92661,-14.04242 -7.67325,-0.0401 -14.38547,-6.59463 -5.52088,-10.49051 -1.76571,7.84563 0.35649,11.02097 8.97605,7.23991 -13.71804,10.55842 -11.30888,21.18674 1.74554,8.18172 27.44165,26.91569 36.38318,30.20277 17.09559,-0.0513 14.13523,-1.50438 31.20385,-0.75131 6.72073,-1.34644 20.08287,4.6187 26.31757,-4.77643 9.80414,-7.04873 15.84571,-16.20043 23.46651,-25.88058 5.65252,-10.57419 -12.52637,-13.74349 -13.91921,-22.59112 0.0494,-5.27646 4.02871,-20.01017 -3.1553,-9.11215 -4.98453,5.75072 -14.54455,3.34646 -11.79054,-5.14712 -2.51203,-11.98619 9.15855,-15.68903 16.97829,-18.12996 8.76722,-4.44579 11.24573,-5.04793 17.76553,-13.24332 4.3741,-11.89477 4.89153,-17.81928 5.66043,-30.08311 -2.50005,-17.30327 -8.07374,-23.29866 -12.79606,-35.18016 -3.30403,-10.26781 -10.6254,-25.56128 1.87089,-32.61481 5.92679,-8.07895 -9.05841,1.90505 -10.76545,4.80751 -9.18147,7.15607 -9.76913,19.47153 -4.0745,28.91027 4.79025,11.90716 11.83232,25.81123 5.41211,38.43825 -4.11456,7.16999 -20.11389,20.37668 -21.49662,5.2975 -2.35486,-12.51918 -6.76815,-25.21024 -14.30235,-35.6649 -5.30461,-8.23776 11.20385,-11.96042 12.61479,-23.68387 2.99894,-11.13428 2.25678,-23.82634 -7.49945,-33.47616 -5.08073,-4.08547 -10.64751,-6.40392 -20.97721,-6.24567 z"
       id="path3353"
       inkscape:connector-curvature="0"
       sodipodi:nodetypes="cccccccccccccccccccccccccccccccccccccc" />
  </g>
</svg>
