<?xml version="1.0" encoding="UTF-8" standalone="no"?>
<!-- Created with Inkscape (http://www.inkscape.org/) -->

<svg
   xmlns:dc="http://purl.org/dc/elements/1.1/"
   xmlns:cc="http://creativecommons.org/ns#"
   xmlns:rdf="http://www.w3.org/1999/02/22-rdf-syntax-ns#"
   xmlns:svg="http://www.w3.org/2000/svg"
   xmlns="http://www.w3.org/2000/svg"
   xmlns:sodipodi="http://sodipodi.sourceforge.net/DTD/sodipodi-0.dtd"
   xmlns:inkscape="http://www.inkscape.org/namespaces/inkscape"
   width="210mm"
   height="297mm"
   viewBox="0 0 744.09448819 1052.3622047"
   id="svg3564"
   version="1.1"
   inkscape:version="0.91 r13725"
   sodipodi:docname="halfupbutterfly.svg">
  <defs
     id="defs3566" />
  <sodipodi:namedview
     id="base"
     pagecolor="#ffffff"
     bordercolor="#666666"
     borderopacity="1.0"
     inkscape:pageopacity="0.0"
     inkscape:pageshadow="2"
     inkscape:zoom="0.57816423"
     inkscape:cx="728.0278"
     inkscape:cy="660.7843"
     inkscape:document-units="px"
     inkscape:current-layer="layer4"
     showgrid="false"
     inkscape:window-width="1536"
     inkscape:window-height="809"
     inkscape:window-x="-8"
     inkscape:window-y="-8"
     inkscape:window-maximized="1" />
  <metadata
     id="metadata3569">
    <rdf:RDF>
      <cc:Work
         rdf:about="">
        <dc:format>image/svg+xml</dc:format>
        <dc:type
           rdf:resource="http://purl.org/dc/dcmitype/StillImage" />
        <dc:title></dc:title>
      </cc:Work>
    </rdf:RDF>
  </metadata>
  <g
     inkscape:groupmode="layer"
     id="layer3"
     inkscape:label="Layer 3" />
  <g
     inkscape:groupmode="layer"
     id="layer4"
     inkscape:label="Layer 4">
    <path
       style="fill:none;fill-rule:evenodd;stroke:#f60000;stroke-width:1px;stroke-linecap:butt;stroke-linejoin:miter;stroke-opacity:1"
       d="M 557.82394,433.59952 C 529.69836,320.31595 454.69682,246.09568 454.69682,246.09568 335.16312,86.717408 208.59803,37.497649 208.59803,37.497649 125.00256,5.4657428 72.65774,11.715871 72.65774,11.715871 13.281522,20.309797 29.883426,74.803102 29.883426,74.803102 c -2.734432,31.445958 13.867471,59.571538 13.867471,59.571538 4.101646,15.62532 9.197822,27.49055 9.197822,27.49055 5.468862,18.75038 15.216741,25.63553 15.216741,25.63553 -3.515697,15.62533 4.882913,23.6333 4.882913,23.6333 7.81266,20.50824 14.062788,24.80519 14.062788,24.80519 -2.734431,16.40659 -1.171899,23.24267 -1.171899,23.24267 1.367216,17.38317 6.250128,25.9771 6.250128,25.9771 4.687596,15.62532 0,24.21924 0,24.21924 -6.250128,31.25064 14.84405,46.87596 14.84405,46.87596 6.25013,15.23469 7.0314,28.12558 7.0314,28.12558 0.78126,19.53165 25.00051,36.7195 25.00051,36.7195 8.00798,17.18785 11.71899,19.53165 11.71899,19.53165 27.149,25.39115 53.90736,26.56305 53.90736,26.56305 48.82913,2.3438 93.75192,-17.18785 93.75192,-17.18785 40.62583,-13.28153 112.5023,-15.62532 112.5023,-15.62532 75.78281,-9.3752 146.87802,-0.78127 146.87802,-0.78127 z"
       id="path3371" />
    <path
       style="fill:none;fill-rule:evenodd;stroke:#f60000;stroke-width:1px;stroke-linecap:butt;stroke-linejoin:miter;stroke-opacity:1"
       d="M 546.88621,436.72459 C 524.2295,342.1914 435.94644,234.37669 435.94644,234.37669 341.41325,112.49919 257.81779,74.998418 257.81779,74.998418 159.37827,10.934605 66.407611,19.528531 66.407611,19.528531 44.532163,21.091063 20.350821,30.099116 20.350821,30.099116"
       id="path3369" />
    <path
       style="fill:none;fill-rule:evenodd;stroke:#f60000;stroke-width:1px;stroke-linecap:butt;stroke-linejoin:miter;stroke-opacity:1"
       d="M 541.41735,435.94332 C 505.47911,350.00406 476.57227,298.4405 476.57227,298.4405 439.0715,233.59542 381.25782,182.81313 381.25782,182.81313 c -52.73546,-43.7509 -87.5018,-48.43849 -87.5018,-48.43849 l -39.84456,28.90684 -2.3438,33.59444 34.3757,43.75089 42.18837,40.62584 48.43849,35.93823 c 121.8775,71.87648 149.22181,101.56459 149.22181,101.56459 l 10.93772,16.40658"
       id="path3367" />
    <path
       style="fill:none;fill-rule:evenodd;stroke:#f60000;stroke-width:1px;stroke-linecap:butt;stroke-linejoin:miter;stroke-opacity:1"
       d="M 295.54962,136.42624 C 288.76738,113.05738 277.06915,94.577461 277.06915,94.577461 L 247.44117,63.196115"
       id="path3365" />
    <path
       style="fill:none;fill-rule:evenodd;stroke:#f60000;stroke-width:1px;stroke-linecap:butt;stroke-linejoin:miter;stroke-opacity:1"
       d="M 294.75562,136.03276 238.67677,115.23362 C 183.59751,70.701455 125.78383,66.404492 125.78383,66.404492 84.767363,62.498161 15.884386,76.989174 15.884386,76.989174"
       id="path3363" />
    <path
       style="fill:none;fill-rule:evenodd;stroke:#f60000;stroke-width:1px;stroke-linecap:butt;stroke-linejoin:miter;stroke-opacity:1"
       d="M 241.69798,114.95746 C 162.00884,107.92607 74.220272,109.37412 74.220272,109.37412 45.704062,110.54602 23.132241,119.9588 23.132241,119.9588"
       id="path3361" />
    <path
       style="fill:none;fill-rule:evenodd;stroke:#f60000;stroke-width:1px;stroke-linecap:butt;stroke-linejoin:miter;stroke-opacity:1"
       d="M 271.51553,165.06982 C 191.43576,156.47589 89.749012,155.304 89.749012,155.304 74.904957,154.91336 40.894295,165.94997 40.894295,165.94997"
       id="path3359" />
    <path
       style="fill:none;fill-rule:evenodd;stroke:#f60000;stroke-width:1px;stroke-linecap:butt;stroke-linejoin:miter;stroke-opacity:1"
       d="m 274.53149,197.52374 c -74.6109,-0.78127 -154.60716,3.64914 -154.60716,3.64914 -27.344307,0.39063 -64.345898,12.45781 -64.345898,12.45781"
       id="path3357" />
    <path
       style="fill:none;fill-rule:evenodd;stroke:#f60000;stroke-width:1px;stroke-linecap:butt;stroke-linejoin:miter;stroke-opacity:1"
       d="m 306.58873,239.79424 c -97.65826,5.07823 -175.72667,12.16093 -175.72667,12.16093 -20.70355,2.3438 -60.505515,20.07751 -60.505515,20.07751"
       id="path3355" />
    <path
       style="fill:none;fill-rule:evenodd;stroke:#f60000;stroke-width:1px;stroke-linecap:butt;stroke-linejoin:miter;stroke-opacity:1"
       d="m 345.97256,280.37347 c -51.9542,1.56254 -149.87479,20.02019 -149.87479,20.02019 -68.36078,11.71899 -118.987534,33.93793 -118.987534,33.93793"
       id="path3353" />
    <path
       style="fill:none;fill-rule:evenodd;stroke:#f60000;stroke-width:1px;stroke-linecap:butt;stroke-linejoin:miter;stroke-opacity:1"
       d="m 396.05904,312.64394 c -45.31343,10.93772 -99.56859,28.76619 -99.56859,28.76619 -63.67318,25.78178 -95.70508,24.60988 -95.70508,24.60988 -49.21976,4.6876 -99.74768,31.90472 -99.74768,31.90472"
       id="path3351" />
    <path
       style="fill:none;fill-rule:evenodd;stroke:#f60000;stroke-width:1px;stroke-linecap:butt;stroke-linejoin:miter;stroke-opacity:1"
       d="M 534.76047,425.89695 C 457.41908,397.72258 402.17523,379.49211 402.17523,379.49211 334.77773,357.94701 253.56927,391.09332 253.56927,391.09332 192.2486,408.77135 125.38704,424.609 125.38704,424.609"
       id="path3349" />
    <path
       style="fill:none;fill-rule:evenodd;stroke:#f60000;stroke-width:1px;stroke-linecap:butt;stroke-linejoin:miter;stroke-opacity:1"
       d="m 481.66578,401.58965 c -129.27061,1.10488 -192.74045,15.46828 -192.74045,15.46828 -66.29262,10.49633 -139.39735,39.60579 -139.39735,39.60579"
       id="path4189" />
  </g>
  <g
     inkscape:groupmode="layer"
     id="layer2"
     inkscape:label="Layer 2" />
</svg>
