<?xml version="1.0" encoding="UTF-8" standalone="no"?>
<!-- Created with Inkscape (http://www.inkscape.org/) -->

<svg
   xmlns:dc="http://purl.org/dc/elements/1.1/"
   xmlns:cc="http://creativecommons.org/ns#"
   xmlns:rdf="http://www.w3.org/1999/02/22-rdf-syntax-ns#"
   xmlns:svg="http://www.w3.org/2000/svg"
   xmlns="http://www.w3.org/2000/svg"
   xmlns:sodipodi="http://sodipodi.sourceforge.net/DTD/sodipodi-0.dtd"
   xmlns:inkscape="http://www.inkscape.org/namespaces/inkscape"
   width="210mm"
   height="297mm"
   viewBox="0 0 744.09448819 1052.3622047"
   id="svg3564"
   version="1.1"
   inkscape:version="0.91 r13725"
   sodipodi:docname="halfbutterfly.svg">
  <defs
     id="defs3566" />
  <sodipodi:namedview
     id="base"
     pagecolor="#ffffff"
     bordercolor="#666666"
     borderopacity="1.0"
     inkscape:pageopacity="0.0"
     inkscape:pageshadow="2"
     inkscape:zoom="0.57816423"
     inkscape:cx="1003.6137"
     inkscape:cy="531.53397"
     inkscape:document-units="px"
     inkscape:current-layer="layer4"
     showgrid="false"
     inkscape:window-width="1536"
     inkscape:window-height="809"
     inkscape:window-x="-8"
     inkscape:window-y="-8"
     inkscape:window-maximized="1" />
  <metadata
     id="metadata3569">
    <rdf:RDF>
      <cc:Work
         rdf:about="">
        <dc:format>image/svg+xml</dc:format>
        <dc:type
           rdf:resource="http://purl.org/dc/dcmitype/StillImage" />
        <dc:title />
      </cc:Work>
    </rdf:RDF>
  </metadata>
  <g
     inkscape:groupmode="layer"
     id="layer3"
     inkscape:label="Layer 3">
    <path
       style="opacity:0.54839998;fill:#ffff00;fill-rule:evenodd;stroke:#000000;stroke-width:1px;stroke-linecap:butt;stroke-linejoin:miter;stroke-opacity:1"
       d="m 586.20312,332.20508 c -0.68144,0.01 -0.571,0.101 -1.4011,0.14983 l -3.29054,-0.15208 c -4.0363,-0.38911 -5.4723,2.26959 -4.02125,3.33231 0.21201,0.14789 0.421,0.27912 0.63477,0.43945 0,0 -0.29218,-0.18855 -0.63477,-0.43945 -15.28388,-10.66226 -25.92773,10.59765 -25.92773,10.59765 -12.50025,15.62532 7.8125,29.6875 7.8125,29.6875 10.93773,6.25013 -7.8125,21.09375 -7.8125,21.09375 -14.06278,35.15697 -8.59375,96.09571 -8.59375,96.09571 0.78126,48.43849 17.1875,46.87695 17.1875,46.87695 13.28152,21.87545 -3.125,62.5 -3.125,62.5 -5.46887,56.25115 7.03125,100.00195 7.03125,100.00195 0.75837,31.85144 18.30551,42.26518 19.3418,42.85352 l 0,0.0605 c 0,0 0.0505,-0.0282 0.0527,-0.0293 0.0166,0.009 0.13672,0.0859 0.13672,0.0859 l 0,-0.16211 c 1.04224,-0.53206 20.35685,-10.80615 21.11719,-42.74024 0,0 12.50012,-43.7508 7.03125,-100.00195 0,0 -16.40652,-40.62455 -3.125,-62.5 0,0 16.40624,1.56154 17.1875,-46.87696 0,10e-6 5.46903,-60.93873 -8.59375,-96.0957 0,0 -18.75023,-14.84362 -7.8125,-21.09375 0,0 20.31275,-14.06218 7.8125,-29.6875 0,0 -11.2247,-22.13277 -26.85002,-10.41378 0,0 -0.16584,-3.40844 -4.1578,-3.58231 z"
       id="path4391"
       inkscape:connector-curvature="0"
       sodipodi:nodetypes="cccccccccccccccccccccccccccc" />
  </g>
  <g
     inkscape:groupmode="layer"
     id="layer4"
     inkscape:label="Layer 4">
    <path
       style="fill:none;fill-rule:evenodd;stroke:#f60000;stroke-width:1px;stroke-linecap:butt;stroke-linejoin:miter;stroke-opacity:1"
       d="M 557.82394,433.59952 C 529.69836,320.31595 454.69682,246.09568 454.69682,246.09568 335.16312,86.717408 208.59803,37.497649 208.59803,37.497649 125.00256,5.4657428 72.65774,11.715871 72.65774,11.715871 13.281522,20.309797 29.883426,74.803102 29.883426,74.803102 c -2.734432,31.445958 13.867471,59.571538 13.867471,59.571538 4.101646,15.62532 9.197822,27.49055 9.197822,27.49055 5.468862,18.75038 15.216741,25.63553 15.216741,25.63553 -3.515697,15.62533 4.882913,23.6333 4.882913,23.6333 7.81266,20.50824 14.062788,24.80519 14.062788,24.80519 -2.734431,16.40659 -1.171899,23.24267 -1.171899,23.24267 1.367216,17.38317 6.250128,25.9771 6.250128,25.9771 4.687596,15.62532 0,24.21924 0,24.21924 -6.250128,31.25064 14.84405,46.87596 14.84405,46.87596 6.25013,15.23469 7.0314,28.12558 7.0314,28.12558 0.78126,19.53165 25.00051,36.7195 25.00051,36.7195 8.00798,17.18785 11.71899,19.53165 11.71899,19.53165 27.149,25.39115 53.90736,26.56305 53.90736,26.56305 48.82913,2.3438 93.75192,-17.18785 93.75192,-17.18785 40.62583,-13.28153 112.5023,-15.62532 112.5023,-15.62532 75.78281,-9.3752 146.87802,-0.78127 146.87802,-0.78127 z"
       id="path3416" />
    <path
       style="fill:none;fill-rule:evenodd;stroke:#f60000;stroke-width:1px;stroke-linecap:butt;stroke-linejoin:miter;stroke-opacity:1"
       d="M 546.88621,436.72459 C 524.2295,342.1914 435.94644,234.37669 435.94644,234.37669 341.41325,112.49919 257.81779,74.998418 257.81779,74.998418 159.37827,10.934605 66.407611,19.528531 66.407611,19.528531 44.532163,21.091063 20.350821,30.099116 20.350821,30.099116"
       id="path3414" />
    <path
       style="fill:none;fill-rule:evenodd;stroke:#f60000;stroke-width:1px;stroke-linecap:butt;stroke-linejoin:miter;stroke-opacity:1"
       d="M 541.41735,435.94332 C 505.47911,350.00406 476.57227,298.4405 476.57227,298.4405 439.0715,233.59542 381.25782,182.81313 381.25782,182.81313 c -52.73546,-43.7509 -87.5018,-48.43849 -87.5018,-48.43849 l -39.84456,28.90684 -2.3438,33.59444 34.3757,43.75089 42.18837,40.62584 48.43849,35.93823 c 121.8775,71.87648 149.22181,101.56459 149.22181,101.56459 l 10.93772,16.40658"
       id="path3412" />
    <path
       style="fill:none;fill-rule:evenodd;stroke:#f60000;stroke-width:1px;stroke-linecap:butt;stroke-linejoin:miter;stroke-opacity:1"
       d="M 295.54962,136.42624 C 288.76738,113.05738 277.06915,94.577461 277.06915,94.577461 L 247.44117,63.196115"
       id="path3410" />
    <path
       style="fill:none;fill-rule:evenodd;stroke:#f60000;stroke-width:1px;stroke-linecap:butt;stroke-linejoin:miter;stroke-opacity:1"
       d="M 294.75562,136.03276 238.67677,115.23362 C 183.59751,70.701455 125.78383,66.404492 125.78383,66.404492 84.767363,62.498161 15.884386,76.989174 15.884386,76.989174"
       id="path3408" />
    <path
       style="fill:none;fill-rule:evenodd;stroke:#f60000;stroke-width:1px;stroke-linecap:butt;stroke-linejoin:miter;stroke-opacity:1"
       d="M 241.69798,114.95746 C 162.00884,107.92607 74.220272,109.37412 74.220272,109.37412 45.704062,110.54602 23.132241,119.9588 23.132241,119.9588"
       id="path3406" />
    <path
       style="fill:none;fill-rule:evenodd;stroke:#f60000;stroke-width:1px;stroke-linecap:butt;stroke-linejoin:miter;stroke-opacity:1"
       d="M 271.51553,165.06982 C 191.43576,156.47589 89.749012,155.304 89.749012,155.304 74.904957,154.91336 40.894295,165.94997 40.894295,165.94997"
       id="path3404" />
    <path
       style="fill:none;fill-rule:evenodd;stroke:#f60000;stroke-width:1px;stroke-linecap:butt;stroke-linejoin:miter;stroke-opacity:1"
       d="m 274.53149,197.52374 c -74.6109,-0.78127 -154.60716,3.64914 -154.60716,3.64914 -27.344307,0.39063 -64.345898,12.45781 -64.345898,12.45781"
       id="path3402" />
    <path
       style="fill:none;fill-rule:evenodd;stroke:#f60000;stroke-width:1px;stroke-linecap:butt;stroke-linejoin:miter;stroke-opacity:1"
       d="m 306.58873,239.79424 c -97.65826,5.07823 -175.72667,12.16093 -175.72667,12.16093 -20.70355,2.3438 -60.505515,20.07751 -60.505515,20.07751"
       id="path3400" />
    <path
       style="fill:none;fill-rule:evenodd;stroke:#f60000;stroke-width:1px;stroke-linecap:butt;stroke-linejoin:miter;stroke-opacity:1"
       d="m 345.97256,280.37347 c -51.9542,1.56254 -149.87479,20.02019 -149.87479,20.02019 -68.36078,11.71899 -118.987534,33.93793 -118.987534,33.93793"
       id="path3398" />
    <path
       style="fill:none;fill-rule:evenodd;stroke:#f60000;stroke-width:1px;stroke-linecap:butt;stroke-linejoin:miter;stroke-opacity:1"
       d="m 396.05904,312.64394 c -45.31343,10.93772 -99.56859,28.76619 -99.56859,28.76619 -63.67318,25.78178 -95.70508,24.60988 -95.70508,24.60988 -49.21976,4.6876 -99.74768,31.90472 -99.74768,31.90472"
       id="path3396" />
    <path
       style="fill:none;fill-rule:evenodd;stroke:#f60000;stroke-width:1px;stroke-linecap:butt;stroke-linejoin:miter;stroke-opacity:1"
       d="M 534.76047,425.89695 C 457.41908,397.72258 402.17523,379.49211 402.17523,379.49211 334.77773,357.94701 253.56927,391.09332 253.56927,391.09332 192.2486,408.77135 125.38704,424.609 125.38704,424.609"
       id="path3394" />
    <path
       style="fill:none;fill-rule:evenodd;stroke:#f60000;stroke-width:1px;stroke-linecap:butt;stroke-linejoin:miter;stroke-opacity:1"
       d="m 481.66578,401.58965 c -129.27061,1.10488 -192.74045,15.46828 -192.74045,15.46828 -66.29262,10.49633 -139.39735,39.60579 -139.39735,39.60579"
       id="path4189" />
  </g>
  <g
     inkscape:groupmode="layer"
     id="layer2"
     inkscape:label="Layer 2">
    <path
       style="opacity:0.36500005;fill:none;fill-rule:evenodd;stroke:#000000;stroke-width:1.5;stroke-linecap:butt;stroke-linejoin:miter;stroke-miterlimit:4;stroke-dasharray:none;stroke-opacity:1"
       d="m 551.45659,524.48047 c -26.563,69.53268 -31.2506,82.03293 -31.2506,82.03293 -21.0942,73.43901 -21.0942,80.4704 -21.0942,80.4704 -8.5939,66.40761 -7.0314,55.46989 -7.0314,55.46989 -16.4066,42.18837 -22.6567,51.56356 -22.6567,51.56356 -19.5317,7.03139 -14.8441,4.68759 -14.8441,4.68759 -17.9691,17.18786 -16.4066,22.65672 -16.4066,22.65672 0,13.28152 -7.8126,26.56304 -7.8126,26.56304 -22.6567,10.15646 -28.9069,10.93773 -28.9069,10.93773 -18.7504,-7.81266 -28.1255,-8.59393 -28.1255,-8.59393 -5.4689,5.46886 -23.438,10.15646 -23.438,10.15646 -14.8441,-2.3438 -21.0942,-10.15646 -21.0942,-10.15646 -8.5939,-13.28152 -13.2815,-17.18785 -13.2815,-17.18785 -3.9064,-3.12507 -22.6567,2.3438 -22.6567,2.3438 -9.3752,3.90633 -20.313,-5.46887 -20.313,-5.46887 -2.3438,-21.09418 -6.2501,-37.50076 -6.2501,-37.50076 -7.0314,-10.93773 -16.40657,-13.28153 -16.40657,-13.28153 -14.06279,0.78127 -28.12558,-10.93772 -28.12558,-10.93772 0,-12.50026 -5.46886,-31.25064 -5.46886,-31.25064 -4.6876,-16.40659 -22.65672,-21.87545 -22.65672,-21.87545 -14.06279,-11.71899 -6.25013,-32.03191 -6.25013,-32.03191 5.46887,-27.34431 -4.68759,-37.50077 -4.68759,-37.50077 -21.09418,-19.53165 -7.81266,-40.62583 -7.81266,-40.62583 10.93772,-30.46937 9.37519,-46.87596 9.37519,-46.87596 14.84405,-49.21976 95.31442,-89.06433 95.31442,-89.06433 60.1575,-33.59443 167.9722,-55.46988 167.9722,-55.46988 60.1575,-14.84406 71.8765,-0.78127 71.8765,-0.78127 41.4071,23.43798 34.3757,76.56407 34.3757,76.56407 -0.7813,35.15697 -2.3438,35.15697 -2.3438,35.15697 z"
       id="path3583" />
    <path
       style="fill:none;fill-rule:evenodd;stroke:#000000;stroke-width:1.5;stroke-linecap:butt;stroke-linejoin:miter;stroke-miterlimit:4;stroke-dasharray:none;stroke-opacity:1"
       d="m 559.63493,522.59555 c -41.9853,-42.53777 -65.1877,-61.32067 -65.1877,-61.32067 -37.0134,-33.69875 -149.84284,-9.48284 -149.84284,-9.48284 -71.817,25.96461 -120.43157,71.817 -120.43157,71.817 -48.61459,36.46095 -44.74752,36.46095 -44.74752,36.46095"
       id="path4156"
       inkscape:connector-curvature="0"
       sodipodi:nodetypes="ccccc" />
    <path
       style="fill:none;fill-rule:evenodd;stroke:#000000;stroke-width:1.5;stroke-linecap:butt;stroke-linejoin:miter;stroke-miterlimit:4;stroke-dasharray:none;stroke-opacity:1"
       d="m 524.29313,479.87337 c -69.0548,18.23047 -118.92054,38.21129 -118.92054,38.21129 -67.9499,6.62926 -127.6132,34.25118 -127.6132,34.25118 -51.37682,17.67804 -119.35241,99.06925 -119.35241,99.06925"
       id="path4154"
       inkscape:connector-curvature="0"
       sodipodi:nodetypes="cccc" />
    <path
       style="fill:none;fill-rule:evenodd;stroke:#000000;stroke-width:1.5;stroke-linecap:butt;stroke-linejoin:miter;stroke-miterlimit:4;stroke-dasharray:none;stroke-opacity:1"
       d="m 523.59449,471.67982 c -16.0207,28.72681 -24.8597,44.74753 -24.8597,44.74753 -46.4049,72.92188 -96.1243,101.64868 -96.1243,101.64868 -34.8037,12.15364 -33.1463,10.49633 -33.1463,10.49633 l -22.0976,-7.1817 c 0,0 -12.4,-30.41981 -2.3907,-39.25313 12.5541,-11.07911 62.80612,-66.97476 62.80612,-66.97476"
       id="path3585"
       inkscape:connector-curvature="0"
       sodipodi:nodetypes="cccccsc" />
    <path
       style="fill:none;fill-rule:evenodd;stroke:#000000;stroke-width:1.5;stroke-linecap:butt;stroke-linejoin:miter;stroke-miterlimit:4;stroke-dasharray:none;stroke-opacity:1"
       d="m 547.31904,500.04159 c -37.5658,65.74019 -61.29035,116.92956 -61.29035,116.92956 -12.7061,60.76824 -16.0207,148.60596 -16.0207,148.60596 l 0.27876,42.36062"
       id="path4150"
       inkscape:connector-curvature="0"
       sodipodi:nodetypes="cccc" />
    <path
       style="fill:none;fill-rule:evenodd;stroke:#000000;stroke-width:1.5;stroke-linecap:butt;stroke-linejoin:miter;stroke-miterlimit:4;stroke-dasharray:none;stroke-opacity:1"
       d="m 452.32989,575.53826 c -17.1256,77.34139 -24.3073,153.02547 -24.3073,153.02547 -6.0768,81.20846 -32.98401,150.38543 -32.98401,150.38543"
       id="path4148"
       inkscape:connector-curvature="0"
       sodipodi:nodetypes="ccc" />
    <path
       style="fill:none;fill-rule:evenodd;stroke:#000000;stroke-width:1.5;stroke-linecap:butt;stroke-linejoin:miter;stroke-miterlimit:4;stroke-dasharray:none;stroke-opacity:1"
       d="m 349.90087,581.1792 c -79.5512,30.93655 -117.72026,80.92502 -117.72026,80.92502 -37.56581,30.93656 -45.46219,70.64127 -45.46219,70.64127"
       id="path4146"
       inkscape:connector-curvature="0"
       sodipodi:nodetypes="ccc" />
    <path
       style="fill:none;fill-rule:evenodd;stroke:#000000;stroke-width:1.5;stroke-linecap:butt;stroke-linejoin:miter;stroke-miterlimit:4;stroke-dasharray:none;stroke-opacity:1"
       d="m 353.773,614.90824 c -57.4536,54.69141 -95.90141,97.63477 -95.90141,97.63477 -27.62195,37.56582 -47.49996,74.60485 -47.49996,74.60485"
       id="path4144"
       inkscape:connector-curvature="0"
       sodipodi:nodetypes="ccc" />
    <path
       style="fill:none;fill-rule:evenodd;stroke:#000000;stroke-width:1.5;stroke-linecap:butt;stroke-linejoin:miter;stroke-miterlimit:4;stroke-dasharray:none;stroke-opacity:1"
       d="M 372.46968,621.25872 C 324.95998,720.69765 260.16712,854.78871 260.16712,854.78871"
       id="path4142"
       inkscape:connector-curvature="0"
       sodipodi:nodetypes="cc" />
    <path
       style="fill:none;fill-rule:evenodd;stroke:#000000;stroke-width:1.5;stroke-linecap:butt;stroke-linejoin:miter;stroke-miterlimit:4;stroke-dasharray:none;stroke-opacity:1"
       d="m 403.99415,612.65793 c -30.3842,109.93526 -46.68366,198.21913 -46.68366,198.21913 -12.7061,49.16703 -7.74396,73.79928 -7.74396,73.79928"
       id="path3589"
       inkscape:connector-curvature="0"
       sodipodi:nodetypes="ccc" />
  </g>
</svg>
