<?xml version="1.0" encoding="UTF-8" standalone="no"?>
<!-- Created with Inkscape (http://www.inkscape.org/) -->

<svg
   xmlns:dc="http://purl.org/dc/elements/1.1/"
   xmlns:cc="http://creativecommons.org/ns#"
   xmlns:rdf="http://www.w3.org/1999/02/22-rdf-syntax-ns#"
   xmlns:svg="http://www.w3.org/2000/svg"
   xmlns="http://www.w3.org/2000/svg"
   xmlns:sodipodi="http://sodipodi.sourceforge.net/DTD/sodipodi-0.dtd"
   xmlns:inkscape="http://www.inkscape.org/namespaces/inkscape"
   width="210mm"
   height="297mm"
   viewBox="0 0 744.09448819 1052.3622047"
   id="svg4173"
   version="1.1"
   inkscape:version="0.91 r13725"
   sodipodi:docname="wing.svg">
  <defs
     id="defs4175" />
  <sodipodi:namedview
     id="base"
     pagecolor="#ffffff"
     bordercolor="#666666"
     borderopacity="1.0"
     inkscape:pageopacity="0.0"
     inkscape:pageshadow="2"
     inkscape:zoom="2"
     inkscape:cx="382.42985"
     inkscape:cy="750.21554"
     inkscape:document-units="px"
     inkscape:current-layer="layer1"
     showgrid="false"
     inkscape:window-width="1536"
     inkscape:window-height="803"
     inkscape:window-x="-8"
     inkscape:window-y="-8"
     inkscape:window-maximized="1" />
  <metadata
     id="metadata4178">
    <rdf:RDF>
      <cc:Work
         rdf:about="">
        <dc:format>image/svg+xml</dc:format>
        <dc:type
           rdf:resource="http://purl.org/dc/dcmitype/StillImage" />
        <dc:title></dc:title>
      </cc:Work>
    </rdf:RDF>
  </metadata>
  <g
     inkscape:label="Layer 1"
     inkscape:groupmode="layer"
     id="layer1">
    <path
       style="fill:#00ff00;fill-rule:evenodd;stroke:#000000;stroke-width:0.5;stroke-linecap:butt;stroke-linejoin:miter;stroke-miterlimit:4;stroke-dasharray:none;stroke-opacity:1"
       d="M 156.09756,436.33433 166.1324,421.83955 C 177.28224,395.07998 197.35192,355.4981 197.35192,355.4981 268.71081,232.85001 385.78398,169.85349 385.78398,169.85349 515.67945,97.379622 557.4913,156.4737 557.4913,156.4737 c 13.37979,24.52962 1.11498,56.86411 1.11498,56.86411 -6.6899,13.93729 -12.26481,27.87457 -12.26481,27.87457 -13.93728,26.20208 -22.29965,53.51916 -22.29965,53.51916 -2.78746,14.49478 -6.68989,36.79442 -6.68989,36.79442 -7.24739,23.41464 -12.26482,41.25436 -12.26482,41.25436 -17.83972,32.3345 -24.52961,44.5993 -24.52961,44.5993 -28.43206,31.77701 -60.20906,37.90941 -60.20906,37.90941 -42.36934,2.78746 -75.81882,-0.55749 -75.81882,-0.55749 -51.84669,-4.45993 -110.38327,-3.34495 -110.38327,-3.34495 -52.40418,1.67247 -62.43904,-12.26481 -62.43904,-12.26481 z"
       id="path4256" />
    <path
       style="fill:none;fill-rule:evenodd;stroke:#000000;stroke-width:0.5;stroke-linecap:butt;stroke-linejoin:miter;stroke-miterlimit:4;stroke-dasharray:none;stroke-opacity:1"
       d="m 481.59545,415.44653 c 0,0 -13.75479,-7.49738 -41.62935,-12.5148 0,0 -36.23694,-5.01742 -80.27875,-16.72474 0,0 -35.86449,-8.95726 -63.18157,-20.66458"
       id="path4822"
       inkscape:connector-curvature="0"
       sodipodi:nodetypes="cccc" />
    <path
       style="fill:none;fill-rule:evenodd;stroke:#000000;stroke-width:0.5;stroke-linecap:butt;stroke-linejoin:miter;stroke-miterlimit:4;stroke-dasharray:none;stroke-opacity:1"
       d="m 357.32067,226.68355 c 8.36237,-18.9547 28.4633,-34.5304 28.4633,-34.5304 22.85715,-19.5122 43.48433,-27.87457 43.48433,-27.87457 36.43403,-20.13733 45.85502,-28.5305 45.85502,-28.5305"
       id="path4820"
       inkscape:connector-curvature="0"
       sodipodi:nodetypes="cccc" />
    <path
       style="fill:none;fill-rule:evenodd;stroke:#000000;stroke-width:0.5;stroke-linecap:butt;stroke-linejoin:miter;stroke-miterlimit:4;stroke-dasharray:none;stroke-opacity:1"
       d="m 518.4669,325.39356 c 0,0 -34.56446,-7.24739 -76.37631,-13.37979 0,0 -37.35191,-6.6899 -76.93379,-5.57491"
       id="path4818" />
    <path
       style="fill:none;fill-rule:evenodd;stroke:#000000;stroke-width:0.5;stroke-linecap:butt;stroke-linejoin:miter;stroke-miterlimit:4;stroke-dasharray:none;stroke-opacity:1"
       d="m 337.27933,336.54339 c 26.75959,1.11498 64.1144,11.14982 64.1144,11.14982 l 62.99652,15.60976 c 26.75958,6.1324 40.80874,9.04486 40.80874,9.04486"
       id="path4816"
       inkscape:connector-curvature="0"
       sodipodi:nodetypes="cccc" />
    <path
       style="fill:none;fill-rule:evenodd;stroke:#000000;stroke-width:0.5;stroke-linecap:butt;stroke-linejoin:miter;stroke-miterlimit:4;stroke-dasharray:none;stroke-opacity:1"
       d="m 203.38922,419.5933 c 63.55401,1.11498 138.91043,10.60862 138.91043,10.60862 46.27178,3.90244 63.55401,5.01743 63.55401,5.01743 26.20209,1.67246 45.03019,6.95506 45.03019,6.95506"
       id="path4814"
       inkscape:connector-curvature="0"
       sodipodi:nodetypes="cccc" />
    <path
       style="fill:none;fill-rule:evenodd;stroke:#000000;stroke-width:0.5;stroke-linecap:butt;stroke-linejoin:miter;stroke-miterlimit:4;stroke-dasharray:none;stroke-opacity:1"
       d="m 410.30858,211.68096 c 71.35889,-4.45993 149.97017,-6.70552 149.97017,-6.70552 l 0.77344,-0.0234"
       id="path4812"
       inkscape:connector-curvature="0"
       sodipodi:nodetypes="ccc" />
    <path
       style="fill:none;fill-rule:evenodd;stroke:#000000;stroke-width:0.5;stroke-linecap:butt;stroke-linejoin:miter;stroke-miterlimit:4;stroke-dasharray:none;stroke-opacity:1"
       d="m 542.82966,248.02336 c 0,0 -25.47774,-7.36848 -65.61712,-5.13851 0,0 -46.8969,-0.0647 -95.39864,13.31506"
       id="path4810"
       inkscape:connector-curvature="0"
       sodipodi:nodetypes="ccc" />
    <path
       style="fill:none;fill-rule:evenodd;stroke:#000000;stroke-width:0.5;stroke-linecap:butt;stroke-linejoin:miter;stroke-miterlimit:4;stroke-dasharray:none;stroke-opacity:1"
       d="m 384.40715,277.15656 c 41.81185,-6.6899 98.9378,-2.49471 98.9378,-2.49471 28.43205,1.11499 45.45367,6.21835 45.45367,6.21835"
       id="path4808"
       inkscape:connector-curvature="0"
       sodipodi:nodetypes="ccc" />
    <path
       style="fill:none;fill-rule:evenodd;stroke:#000000;stroke-width:0.5;stroke-linecap:butt;stroke-linejoin:miter;stroke-miterlimit:4;stroke-dasharray:none;stroke-opacity:1"
       d="m 560.84775,164.25098 -0.569,0.0276 0,0 c 0,0 -50.73171,1.67247 -92.54356,16.72474 0,0 -44.5993,12.8223 -57.4216,30.66202 l -22.85714,3.90243 -30.10453,11.14983"
       id="path4806"
       inkscape:connector-curvature="0"
       sodipodi:nodetypes="ccccccc" />
    <path
       style="fill:none;fill-rule:evenodd;stroke:#000000;stroke-width:0.5;stroke-linecap:butt;stroke-linejoin:miter;stroke-miterlimit:4;stroke-dasharray:none;stroke-opacity:1"
       d="m 168.41137,438.52397 c 5.01742,-7.24739 27.36182,-15.01975 27.36182,-15.01975 30.10453,-15.05227 47.38676,-27.87457 47.38676,-27.87457 23.41464,-17.28223 51.2892,-28.98954 51.2892,-28.98954 28.98955,-16.16725 45.71429,-32.89199 45.71429,-32.89199 31.21951,-27.87456 44.04181,-56.30662 44.04181,-56.30662 l -2.28521,-21.72605 -24.52961,-28.98955 -32.2278,4.6184"
       id="path4804"
       inkscape:connector-curvature="0"
       sodipodi:nodetypes="ccccccccc" />
    <path
       style="fill:none;fill-rule:evenodd;stroke:#000000;stroke-width:0.5;stroke-linecap:butt;stroke-linejoin:miter;stroke-miterlimit:4;stroke-dasharray:none;stroke-opacity:1"
       d="m 475.0773,135.75024 c -6.73859,2.6927 -13.21633,5.43158 -19.84996,8.54907 -31.51928,16.2045 -64.38773,31.20957 -91.98692,53.75104 -19.43818,16.28953 -35.64686,31.14764 -53.78866,47.46829 -24.94333,18.00782 -35.74238,31.40536 -67.03887,65.67631 -20.11977,22.35969 -36.04478,43.89657 -45.46167,71.03659 -6.6611,20.96439 -14.60625,44.21644 -35.58986,55.03903"
       id="path4802"
       inkscape:connector-curvature="0"
       sodipodi:nodetypes="ccccccc" />
    <path
       style="fill:#ff0000;fill-opacity:1;stroke:#ff0000;stroke-width:0.0625;stroke-miterlimit:4;stroke-dasharray:none"
       d="m 157.98317,436.42286 -1.38962,-0.31585 4.83662,-6.94497 c 3.4828,-5.00101 5.56887,-8.63983 7.45268,-13 6.36606,-14.73453 22.40545,-48.36059 28.56608,-59.88787 6.33997,-11.86284 20.52402,-33.1286 32.62663,-48.91621 38.12144,-49.72863 90.34013,-96.90494 144.54722,-130.58933 20.49329,-12.73457 47.8533,-25.67476 69.5,-32.87071 7.1862,-2.38889 24.7712,-7.05475 26.49562,-7.03014 0.41491,0.006 -2.50812,1.42079 -6.49562,3.14415 -7.90581,3.41683 -41.95019,20.57477 -54.75,27.59332 -30.30619,16.61787 -40.59631,24.34302 -83,62.31103 -9.35,8.37193 -18.9125,16.66016 -21.25,18.41829 -13.79268,10.37401 -27.30267,23.40522 -48.75012,47.02244 -27.70946,30.51274 -35.74271,40.51905 -45.35924,56.5 -7.12051,11.83302 -11.14352,20.77782 -16.37532,36.4091 -8.3178,24.8514 -16.29737,37.55731 -28.82103,45.89182 -3.98562,2.65244 -4.92898,2.92518 -7.8339,2.26493 z"
       id="path4247"
       inkscape:connector-curvature="0" />
    <path
       style="fill:#ff0000;fill-opacity:1;stroke:#ff0000;stroke-width:0.02209709;stroke-miterlimit:4;stroke-dasharray:none"
       d="m 326.42053,230.56952 c 1.73651,-1.64169 18.01475,-16.05055 23.50639,-20.80692 10.01481,-8.67394 14.62853,-12.51273 19.35705,-16.10579 15.68078,-11.91534 32.06932,-21.66231 62.13701,-36.95556 25.98342,-13.21588 26.22682,-13.33508 34.06015,-16.6801 4.86462,-2.07732 7.60894,-3.18797 7.68622,-3.11069 0.20168,0.20168 -10.43521,7.37849 -16.46731,11.11065 -10.15761,6.28468 -25.2926,14.95196 -29.44588,16.86263 -7.48434,3.4431 -14.24143,7.25968 -22.52647,12.72356 -6.74062,4.44536 -11.80845,8.24707 -19.09188,14.32207 -12.72929,10.61731 -21.58474,20.96864 -27.08899,31.6649 -1.27073,2.46939 -1.53724,2.87307 -1.95218,2.95692 -0.64299,0.12995 -30.05361,4.34794 -30.31669,4.34794 -0.11333,0 -0.0492,-0.14832 0.14258,-0.32961 z"
       id="path4255"
       inkscape:connector-curvature="0" />
    <path
       style="fill:#ff0000;fill-opacity:1;stroke:#ff0000;stroke-width:0.015625;stroke-miterlimit:4;stroke-dasharray:none"
       d="m 410.95364,211.26093 c 0.27129,-0.47042 1.98885,-2.36074 3.37588,-3.71544 8.60537,-8.4048 26.32519,-17.45891 48.08991,-24.57201 2.0023,-0.65439 6.08741,-1.99781 9.07804,-2.98538 14.04594,-4.63829 27.35667,-7.85516 43.9375,-10.61859 14.03516,-2.33916 30.54913,-4.14881 43.5,-4.76687 l 1.75,-0.0835 0.53363,1.92219 c 0.69735,2.51194 0.96719,3.69993 1.33497,5.87749 1.27781,7.56564 1.21493,15.70186 -0.1916,24.79224 -0.3947,2.55098 -1.37172,7.36385 -1.52623,7.51836 -0.0308,0.0308 -3.48049,0.1656 -7.66591,0.29951 -10.94243,0.3501 -31.67248,1.08374 -37.04736,1.31112 -0.92813,0.0393 -5.20313,0.20988 -9.5,0.37914 -25.27538,0.99568 -50.13148,2.16902 -74.0625,3.49617 -8.75278,0.4854 -20.01871,1.14725 -21.03317,1.23565 -0.48281,0.0421 -0.63552,0.0181 -0.57316,-0.0901 z"
       id="path4257"
       inkscape:connector-curvature="0" />
    <path
       style="fill:#ff0000;fill-opacity:1;stroke:#ff0000;stroke-width:0.015625;stroke-miterlimit:4;stroke-dasharray:none"
       d="m 382.13758,255.71207 c 0,-0.0781 -5.45614,-6.5901 -12.12475,-14.47117 -6.66861,-7.88108 -12.08267,-14.36989 -12.03125,-14.41959 0.0514,-0.0497 6.72325,-2.54469 14.82627,-5.54441 l 14.73278,-5.45404 11.32972,-1.93369 11.32973,-1.93369 6.125,-0.37007 c 27.20759,-1.64388 59.42688,-3.22474 91.625,-4.49565 6.36798,-0.25135 8.64805,-0.33893 17.9375,-0.68902 5.70136,-0.21486 21.43025,-0.75191 27.375,-0.9347 2.23437,-0.0687 4.83283,-0.159 5.77436,-0.20067 l 1.71186,-0.0758 -0.37026,1.4113 c -0.97343,3.71023 -1.83333,6.24847 -2.82009,8.32424 -2.96554,6.23839 -7.16281,15.75512 -10.16029,23.03703 -0.69335,1.68438 -1.30818,3.14688 -1.36631,3.25 -0.0581,0.10313 -0.82657,1.59375 -1.70767,3.3125 -0.88109,1.71875 -1.61257,3.13998 -1.6255,3.15829 -0.0129,0.0183 -0.55228,-0.10667 -1.19855,-0.27772 -4.00214,-1.0593 -11.77243,-2.45946 -18.36255,-3.30883 -11.9294,-1.53752 -26.88358,-2.20907 -39.125,-1.75699 -1.75313,0.0647 -5.97188,0.20345 -9.375,0.30824 -6.59456,0.20306 -9.36461,0.32584 -14.25,0.63162 -21.36112,1.33698 -43.55185,4.43121 -63.0625,8.79329 -4.52541,1.01176 -12.91603,3.09434 -14.96875,3.71528 -0.12032,0.0364 -0.21875,0.002 -0.21875,-0.0758 z"
       id="path4259"
       inkscape:connector-curvature="0" />
    <path
       style="fill:#ff0000;fill-opacity:1;stroke:#ff0000;stroke-width:0.015625;stroke-miterlimit:4;stroke-dasharray:none"
       d="m 526.25502,279.94885 c -2.5107,-0.65252 -8.43129,-1.8611 -12.125,-2.4751 -9.08967,-1.51096 -17.85773,-2.41958 -29,-3.00524 -1.99375,-0.1048 -5.03125,-0.27251 -6.75,-0.3727 -3.72332,-0.21705 -10.18022,-0.50086 -16.375,-0.71977 -6.13472,-0.21678 -32.35039,-0.21589 -37.625,0.001 -15.89475,0.65444 -27.79622,1.65954 -37.9375,3.20389 -1.06562,0.16228 -1.96015,0.27407 -1.98784,0.24842 -0.0597,-0.0553 -2.12969,-19.56563 -2.13412,-20.11436 -0.003,-0.3739 0.007,-0.37943 1.34071,-0.73449 28.49515,-7.58654 59.81844,-11.96974 91.65625,-12.82586 2.44063,-0.0656 5.92813,-0.18287 7.75,-0.26053 3.86426,-0.16471 18.16741,-0.0825 21.8125,0.12543 12.72589,0.72582 23.2114,2.01535 32.6875,4.01998 1.74663,0.36948 4.776,1.09905 4.84338,1.16642 0.018,0.018 -0.50809,1.15277 -1.16905,2.52175 -3.91532,8.10936 -8.54349,19.00121 -11.98608,28.20779 -0.32777,0.87657 -0.65891,1.58736 -0.73585,1.57955 -0.077,-0.008 -1.09615,-0.26272 -2.2649,-0.56647 z"
       id="path4261"
       inkscape:connector-curvature="0" />
    <path
       style="fill:#ff0000;fill-opacity:1;stroke:#ff0000;stroke-width:0.015625;stroke-miterlimit:4;stroke-dasharray:none"
       d="m 512.94252,324.02298 c -17.87695,-3.64439 -45.67771,-8.51388 -65.625,-11.49465 -1.89062,-0.28252 -4.98437,-0.7612 -6.875,-1.06373 -22.51645,-3.60304 -48.8516,-5.66374 -69.0308,-5.40158 -3.81676,0.0496 -5.07178,0.0302 -5.00746,-0.0774 0.0472,-0.079 0.51699,-0.70609 1.04396,-1.39359 6.01477,-7.84703 12.26539,-17.62798 15.9481,-24.95555 0.59968,-1.1932 1.09782,-2.18218 1.10697,-2.19774 0.0311,-0.0529 4.11601,-0.64607 7.06423,-1.02582 8.77534,-1.1303 18.86793,-1.9296 30.0625,-2.38085 15.1957,-0.61254 36.71096,-0.45979 52.75,0.3745 3.23169,0.1681 10.67099,0.5832 14.625,0.81605 10.8733,0.64031 21.49544,1.96736 31,3.8729 3.08918,0.61934 8.2445,1.82435 8.37858,1.95842 0.0307,0.0307 -0.52659,1.68314 -1.2385,3.67199 -0.71193,1.98886 -1.75725,5.02235 -2.32297,6.7411 -0.99756,3.03078 -1.05997,3.29271 -2.0702,8.6875 -0.82378,4.39927 -3.50528,19.13837 -4.35495,23.9375 -0.12721,0.71853 -0.19846,0.87831 -0.39843,0.89352 -0.13394,0.0102 -2.40915,-0.42297 -5.05603,-0.96256 z"
       id="path4263"
       inkscape:connector-curvature="0" />
    <path
       style="fill:#ff0000;fill-opacity:1;stroke:#ff0000;stroke-width:0.015625;stroke-miterlimit:4;stroke-dasharray:none"
       d="m 499.91196,370.95716 c -23.99859,-5.19132 -33.7292,-7.47776 -67.75,-15.9195 -17.4625,-4.33305 -32.9875,-8.19033 -34.5,-8.57172 -20.55459,-5.18307 -42.85493,-9.11471 -56.375,-9.93913 -1.2375,-0.0755 -2.50262,-0.16745 -2.81137,-0.20442 l -0.56136,-0.0672 0.93756,-0.89407 c 0.51566,-0.49174 1.94952,-1.82125 3.18637,-2.95445 7.6706,-7.02788 15.89135,-15.80038 22.15331,-23.64015 l 1.65452,-2.0714 4.34548,-0.0801 c 6.37455,-0.11755 16.56388,0.10731 24.59549,0.54278 14.73853,0.79912 31.54843,2.5648 44.6875,4.69387 1.47812,0.23952 4.74062,0.74423 7.25,1.12158 16.86116,2.53552 35.79009,5.75166 52.99886,9.00481 6.18895,1.16997 18.29471,3.55344 18.35519,3.6139 0.0249,0.0249 -0.19046,1.37379 -0.47859,2.99752 -0.44789,2.52407 -0.69534,3.50881 -1.70619,6.78992 -2.93925,9.54046 -7.34358,24.34367 -9.74177,32.74263 -0.61325,2.14772 -1.17125,3.90153 -1.24,3.89734 -0.0688,-0.004 -2.31875,-0.48215 -5,-1.06215 z"
       id="path4265"
       inkscape:connector-curvature="0" />
    <path
       style="fill:#ff0000;fill-opacity:1;stroke:#ff0000;stroke-width:0.015625;stroke-miterlimit:4;stroke-dasharray:none"
       d="m 480.29675,414.50628 c -7.67385,-3.63378 -18.98489,-7.28173 -30.70119,-9.90152 -2.67265,-0.59761 -9.0669,-1.871 -10.11131,-2.01363 -0.34375,-0.0469 -2.56563,-0.39067 -4.9375,-0.76384 -14.0611,-2.21226 -29.68022,-5.21591 -45.8125,-8.81003 -11.07877,-2.46824 -24.76378,-5.86896 -36.75,-9.13236 -20.06027,-5.46165 -38.27035,-11.53124 -53.97626,-17.99079 l -0.97625,-0.40152 0.97625,-0.56817 c 14.00902,-8.1531 27.13317,-17.46187 37.7049,-26.74353 l 1.60727,-1.41113 0.70704,0.064 c 0.38888,0.0352 1.3258,0.0964 2.08205,0.1359 5.64621,0.29503 14.44591,1.3612 23.13715,2.80331 3.51124,0.5826 11.46422,2.04543 13.30035,2.44639 0.44687,0.0976 2.03007,0.43091 3.51821,0.74072 5.67933,1.18236 12.26009,2.69907 17.73179,4.08678 1.89062,0.47949 17.5,4.35884 34.6875,8.62078 33.57406,8.32528 44.96403,10.99843 67.05997,15.73851 2.92049,0.62652 5.31929,1.14963 5.33069,1.16247 0.0114,0.0128 -1.15913,2.16086 -2.60115,4.77336 -1.44203,2.6125 -6.2258,11.30313 -10.63061,19.3125 -4.40483,8.00938 -8.47225,15.40418 -9.03873,16.43289 -0.56649,1.02871 -1.0784,1.88199 -1.13757,1.89619 -0.0592,0.0142 -0.58573,-0.2006 -1.1701,-0.47732 z"
       id="path4267"
       inkscape:connector-curvature="0" />
    <path
       style="fill:#ff0000;fill-opacity:1;stroke:#ff0000;stroke-width:0.02209709;stroke-miterlimit:4;stroke-dasharray:none"
       d="m 371.05663,455.9358 c -9.85245,-0.29514 -18.05377,-0.75268 -26.97845,-1.5051 -30.12945,-2.54015 -60.96765,-3.5286 -106.50796,-3.4139 -24.26769,0.0611 -24.60564,0.0524 -32.7004,-0.84326 -14.997,-1.65938 -27.06607,-5.56575 -32.16077,-10.40941 -0.93487,-0.8888 -1.06202,-0.95127 -2.35817,-1.1588 -0.75351,-0.12065 -1.37002,-0.27024 -1.37002,-0.33243 0,-0.26132 2.49371,-2.53537 3.8007,-3.46591 4.31628,-3.07305 12.1114,-6.91459 20.24093,-9.97499 1.66109,-0.62533 4.55306,-1.93635 6.71752,-3.04526 l 3.8007,-1.9472 7.15945,0.19902 c 35.92501,0.99866 81.29818,4.51353 125.76689,9.74265 5.81118,0.68334 19.44355,1.86314 42.7013,3.69555 12.41204,0.9779 12.42099,0.97858 24.57196,1.86561 12.68097,0.92571 18.90878,1.6184 27.93072,3.10658 7.11804,1.17412 18.38478,3.54782 18.38478,3.87333 0,0.13646 -4.285,2.57479 -7.24785,4.12431 -6.20635,3.2458 -14.58855,6.56346 -20.33273,8.04766 -2.17198,0.5612 -5.29828,0.80184 -16.52521,1.27198 -5.79972,0.24287 -28.72697,0.35429 -34.89339,0.16957 z"
       id="path4294"
       inkscape:connector-curvature="0" />
    <path
       style="fill:#ff0000;fill-opacity:1;stroke:#ff0000;stroke-width:0.03125;stroke-miterlimit:4;stroke-dasharray:none"
       d="m 165.17155,437.67501 -2.94045,-0.51988 2.03962,-1.2223 c 8.02237,-4.80763 14.85598,-12.23555 20.44871,-22.22712 3.66394,-6.54574 6.69143,-13.89398 10.81972,-26.26131 1.52152,-4.55812 3.46909,-10.03124 4.32792,-12.16249 7.87556,-19.54378 19.52988,-37.4167 38.63486,-59.25 3.68644,-4.21289 24.62509,-27.294 29.71003,-32.75 15.49195,-16.62239 24.93434,-25.30759 38.52504,-35.43567 1.85625,-1.38331 6.7895,-5.60202 10.96279,-9.3749 l 7.58779,-6.85977 15.33268,-2.18862 c 8.43298,-1.20374 15.65739,-2.20603 16.05424,-2.22733 0.66012,-0.0354 1.75799,1.18549 12.89164,14.33629 7.07972,8.36239 12.1726,14.58414 12.1761,14.875 0.003,0.275 0.49619,5.1125 1.0953,10.75 l 1.08928,10.25 -1.08168,2.15616 c -2.3835,4.75114 -6.84864,12.08128 -10.94568,17.96884 -2.9247,4.20289 -6.17923,8.5 -6.43768,8.5 -0.12363,0 -0.22478,0.12975 -0.22478,0.28834 0,0.35866 -3.82249,5.09861 -7.55502,9.36836 -6.19754,7.08952 -18.48692,18.99591 -26.21656,25.39952 -13.35328,11.06252 -29.9373,21.94968 -41.65056,27.34297 -16.89943,7.78122 -32.46175,16.70247 -45.95286,26.3429 -15.9292,11.38263 -40.37258,25.36091 -53.125,30.38025 -9.43189,3.71238 -17.39595,8.06944 -20.98294,11.47956 l -1.64206,1.56108 -2.94045,-0.51988 z"
       id="path4296"
       inkscape:connector-curvature="0" />
    <path
       style="fill:#ff0000;fill-opacity:1;stroke:#ff0000;stroke-width:0.015625;stroke-miterlimit:4;stroke-dasharray:none"
       d="m 357.90975,226.1198 c 0,-0.17189 1.01147,-2.24369 1.74745,-3.57935 4.18816,-7.60056 9.79269,-14.72998 17.6415,-22.44145 2.72694,-2.67922 5.22032,-4.93836 7.73605,-7.00932 0.85938,-0.70744 2.63125,-2.16553 3.9375,-3.24021 8.68079,-7.14187 18.46253,-13.80743 28.4375,-19.37815 2.71641,-1.51703 8.10889,-4.25038 10.4375,-5.29057 1.76014,-0.78626 4.65528,-2.36142 11.125,-6.0528 16.40394,-9.35947 28.55397,-17.07537 35.8125,-22.74278 0.56223,-0.43898 0.56407,-0.43941 3.8125,-0.88985 3.70768,-0.51412 5.79536,-0.74919 9,-1.01338 24.72667,-2.03845 46.21269,2.95748 61.38287,14.27277 3.90775,2.91475 7.48365,6.44457 8.6472,8.53574 0.80273,1.44271 2.78122,6.11852 2.78215,6.57513 0,0.0898 -0.61907,0.16723 -1.78097,0.22274 -7.91964,0.37839 -19.09983,1.3937 -28.46875,2.58533 -22.50366,2.86224 -43.95824,7.59328 -60.27642,13.2918 -1.25734,0.43908 -3.49546,1.17533 -4.97358,1.6361 -10.53573,3.28427 -21.75797,7.75126 -30.75,12.23998 -10.91774,5.45001 -18.37636,10.74652 -23.02344,16.34937 -0.95525,1.15171 -1.03843,1.21943 -1.64755,1.34135 -0.35283,0.0706 -5.45089,0.94627 -11.32901,1.94588 l -10.6875,1.81749 -14.5625,5.39064 c -15.18888,5.62252 -15,5.55409 -15,5.43354 z"
       id="path4300"
       inkscape:connector-curvature="0" />
    <path
       style="fill:#ff0000;fill-opacity:1;stroke:#ff0000;stroke-width:0.02209709;stroke-miterlimit:4;stroke-dasharray:none"
       d="m 450.26918,441.75935 c -0.2909,-0.29091 -10.86682,-2.5311 -16.67685,-3.53249 -9.8801,-1.7029 -16.82014,-2.49622 -30.22881,-3.45547 -22.7172,-1.62518 -59.49046,-4.64234 -65.67255,-5.38827 -1.99315,-0.2405 -6.44793,-0.75392 -9.89949,-1.14095 -5.34452,-0.59929 -9.36464,-1.02362 -21.83192,-2.30438 -30.37572,-3.12051 -67.40298,-5.64184 -94.36236,-6.42551 l -7.03466,-0.20449 4.31254,-2.33267 c 13.38889,-7.2421 25.27485,-14.57495 35.56619,-21.942 9.66121,-6.91598 18.73002,-12.46285 30.84753,-18.86767 4.35435,-2.30152 11.8165,-5.95694 15.46796,-7.57714 1.45841,-0.64712 3.34628,-1.53028 4.19528,-1.96258 l 1.54362,-0.786 3.58881,1.47654 c 15.53935,6.39335 37.35495,13.39114 60.4107,19.37792 27.98781,7.26748 49.21684,11.69127 79.19596,16.50317 5.5423,0.88958 15.04493,3.05944 21.45553,4.8992 6.23109,1.78825 14.04855,4.61075 18.17775,6.56308 l 1.89146,0.8943 -0.42573,0.84014 c -0.75394,1.48781 -6.58221,7.45287 -11.93086,12.21084 -4.0918,3.63993 -9.06893,7.44353 -14.18207,10.83817 -3.23554,2.14808 -4.11439,2.60989 -4.40803,2.31626 z"
       id="path4306"
       inkscape:connector-curvature="0" />
  </g>
</svg>
