<?xml version="1.0" encoding="UTF-8" standalone="no"?>
<!-- Created with Inkscape (http://www.inkscape.org/) -->

<svg
   xmlns:dc="http://purl.org/dc/elements/1.1/"
   xmlns:cc="http://creativecommons.org/ns#"
   xmlns:rdf="http://www.w3.org/1999/02/22-rdf-syntax-ns#"
   xmlns:svg="http://www.w3.org/2000/svg"
   xmlns="http://www.w3.org/2000/svg"
   xmlns:sodipodi="http://sodipodi.sourceforge.net/DTD/sodipodi-0.dtd"
   xmlns:inkscape="http://www.inkscape.org/namespaces/inkscape"
   width="210mm"
   height="297mm"
   viewBox="0 0 744.09448819 1052.3622047"
   id="svg3421"
   version="1.1"
   inkscape:version="0.91 r13725"
   sodipodi:docname="wing2.svg">
  <defs
     id="defs3423" />
  <sodipodi:namedview
     id="base"
     pagecolor="#ffffff"
     bordercolor="#666666"
     borderopacity="1.0"
     inkscape:pageopacity="0.0"
     inkscape:pageshadow="2"
     inkscape:zoom="1.2683728"
     inkscape:cx="251.17323"
     inkscape:cy="624.73721"
     inkscape:document-units="px"
     inkscape:current-layer="layer1"
     showgrid="false"
     inkscape:window-width="1536"
     inkscape:window-height="803"
     inkscape:window-x="-8"
     inkscape:window-y="-8"
     inkscape:window-maximized="1" />
  <metadata
     id="metadata3426">
    <rdf:RDF>
      <cc:Work
         rdf:about="">
        <dc:format>image/svg+xml</dc:format>
        <dc:type
           rdf:resource="http://purl.org/dc/dcmitype/StillImage" />
        <dc:title></dc:title>
      </cc:Work>
    </rdf:RDF>
  </metadata>
  <g
     inkscape:label="Layer 1"
     inkscape:groupmode="layer"
     id="layer1">
    <path
       id="path3440"
       style="fill:#000000"
       d="m 336.48878,128.9876 c 1.60081,-1.92886 12.46791,-9.45773 13.65119,-9.45773 0.43781,0 3.95,-1.52046 7.80487,-3.3788 15.93795,-7.68329 20.22179,-9.6212 21.26812,-9.6212 0.60566,0 3.9451,-1.2976 7.42097,-2.88356 13.03699,-5.94847 16.44852,-7.3302 21.24874,-8.60615 2.71093,-0.72059 5.42436,-1.12007 6.02983,-0.88773 0.96916,0.37191 7.39042,10.16505 8.43378,12.86248 0.21593,0.55823 1.27752,2.27837 2.3591,3.82254 1.08157,1.54416 1.73486,3.03921 1.45175,3.32233 -0.28312,0.28311 -5.84471,0.91045 -12.3591,1.39409 -6.51438,0.48363 -14.99433,1.54847 -18.84433,2.36631 -3.85,0.81783 -11.09336,1.93413 -16.09636,2.48065 -8.79664,0.96094 -32.8645,6.27621 -36.24535,8.00461 -0.91206,0.46627 -2.97437,1.16331 -4.58292,1.54898 -2.64857,0.63503 -2.79396,0.54377 -1.54029,-0.96682 z m -39.03626,16.78529 c 2.47435,-2.05866 6.97435,-6.01381 10,-8.78922 9.68689,-8.88573 31.59394,-24.43252 46.00118,-32.64569 7.10233,-4.04884 29.60432,-12.49146 39.75395,-14.91546 7.88429,-1.88298 9.66038,-2.02071 12,-0.93062 3.16851,1.47631 4.10455,0.88943 -9.75395,6.1156 -9.19063,3.46588 -32.51472,13.76108 -43,18.9801 -7.12342,3.54567 -11.11128,6.27647 -18.11452,12.40446 -8.56356,7.49331 -12.84329,10.62244 -16.62259,12.15365 -2.06959,0.83851 -7.16726,3.27251 -11.32816,5.40888 -4.1609,2.13637 -8.8859,4.35164 -10.5,4.92282 -2.59001,0.91652 -2.40629,0.59884 1.56409,-2.70452 z m -73.99826,85.00698 c 6.3e-4,-1.95632 5.85433,-11.79038 10.60339,-17.8134 1.70716,-2.16513 5.48328,-7.28988 8.39136,-11.38834 8.93206,-12.58823 28.70324,-33.89085 34.2325,-36.88409 2.70677,-1.46529 8.60033,-4.94332 13.09679,-7.72895 8.3462,-5.1706 35.16219,-17.56246 48.68747,-22.49883 7.48166,-2.73061 21.56573,-6.47474 42.48793,-11.29507 16.09189,-3.70746 15.5357,-3.62983 36.66553,-5.11769 l 10.66552,-0.75102 1.50003,2.90073 c 1.53747,2.97314 4.66892,16.59903 4.66892,20.31589 0,2.66433 -0.48779,2.8128 -13,3.95676 -24.46192,2.23649 -38.78649,4.58295 -51.75,8.47699 -2.8875,0.86736 -7.3875,2.22189 -10,3.01006 -2.6125,0.78817 -10.825,3.24416 -18.25,5.45777 -14.12864,4.21215 -26.41739,8.32923 -31.5,10.55338 -1.65,0.72204 -6.15,2.54177 -10,4.04384 -7.67018,2.9925 -31.07508,15.68192 -39,21.14459 -16.76413,11.55558 -31.16349,25.76493 -34.06692,33.61738 -0.35588,0.9625 -1.27391,1.75 -2.04007,1.75 -0.76615,0 -1.39276,-0.7875 -1.39245,-1.75 z m 12.49944,2.01507 c -5.45372,-0.54363 -6.1208,-1.52858 -3.68566,-5.44187 4.94093,-7.94014 24.99181,-23.69785 41.68566,-32.76018 28.25728,-15.33958 50.91384,-24.59128 85.5,-34.91352 18.10535,-5.40355 30.81192,-7.87636 47,-9.14662 7.425,-0.58264 16.53999,-1.56915 20.25553,-2.19225 3.71554,-0.6231 6.92689,-0.9479 7.13633,-0.72177 0.48655,0.52531 -2.0216,24.87421 -2.62435,25.47697 -0.24818,0.24817 -4.90989,0.88314 -10.35937,1.41102 -5.44948,0.52789 -13.50814,1.85353 -17.90814,2.94587 -22.24765,5.52315 -33.86855,8.15893 -42.5,9.6396 -5.225,0.89632 -9.80492,1.81789 -10.1776,2.04794 -0.37268,0.23006 -5.37612,1.07784 -11.11876,1.88396 -22.13275,3.10689 -50.91056,12.07121 -71.06983,22.13835 -7.42632,3.70856 -20.28775,13.66413 -22.99991,17.80341 -0.924,1.41021 -2.45713,2.48837 -3.40695,2.39592 -0.94982,-0.0925 -3.52695,-0.34753 -5.72695,-0.56683 z m -31.5,-0.52243 c 0,-0.53823 1.2375,-2.48004 2.75,-4.31513 1.5125,-1.83508 4.55,-5.65414 6.75,-8.48681 2.2,-2.83266 5.8,-7.28101 8,-9.88521 2.2,-2.6042 7.36953,-8.74454 11.48784,-13.6452 12.75199,-15.17448 35.98784,-37.50906 54.00501,-51.91029 2.0643,-1.65 7.7277,-6.375 12.58536,-10.5 20.00814,-16.99042 38.51805,-29.31891 50.17179,-33.41682 5.34155,-1.87829 5.46166,-1.24197 0.2659,1.40871 -10.95681,5.58975 -30.48758,19.64189 -47.64435,34.27951 -3.37065,2.87573 -9.05655,7.57581 -12.63533,10.44463 -6.26624,5.02312 -14.29975,12.04972 -19.76075,17.28397 -4.46398,4.27862 -27.31375,30.5465 -30.56516,35.13742 -1.69934,2.39942 -5.5819,7.73758 -8.62793,11.86258 -5.3371,7.22762 -9.59975,14.58813 -11.67215,20.15483 -0.94399,2.53564 -1.30535,2.65284 -8.0493,2.61063 -3.90762,-0.0245 -7.06093,-0.48124 -7.06093,-1.02282 z m 65.64102,9.51813 c -4.87244,-2.42355 -12.07244,-5.22747 -16,-6.23094 l -7.14102,-1.82449 4.08068,-3.90155 c 4.54885,-4.34916 21.74755,-15.22961 28.96099,-18.32165 9.81209,-4.20595 31.15113,-10.91039 44.95833,-14.1253 9.12375,-2.1244 11.00742,-2.46405 29.19639,-5.2646 5.60801,-0.86346 14.09585,-2.69995 18.86187,-4.08108 4.76601,-1.38114 10.02912,-2.51116 11.69579,-2.51116 1.66668,0 6.00384,-0.87176 9.63814,-1.93725 9.62563,-2.822 20.46738,-4.88053 29.7996,-5.65807 l 8.1918,-0.68252 0.0195,14.08383 c 0.0172,12.42969 -0.18153,14.14582 -1.6918,14.61162 -0.94119,0.29028 -8.91125,1.24058 -17.71125,2.11176 -28.81821,2.85294 -42.71009,4.98553 -58.75,9.01891 -25.12756,6.31854 -29.80906,7.60322 -37.75,10.35918 -14.81002,5.13991 -22.39708,8.48306 -28.02825,12.3503 -3.00946,2.06677 -6.37175,4.35439 -7.47175,5.08361 -1.76261,1.16848 -3.05151,0.80283 -10.85898,-3.0806 z m -3.64102,28.94738 c 0,-1.79644 4.19455,-8.97888 8.29757,-14.20815 10.39007,-13.24206 27.80588,-21.94732 62.20243,-31.09177 3.85,-1.02353 13.75,-3.69048 22,-5.92655 8.83299,-2.39408 18.28907,-4.27993 23,-4.58695 4.4,-0.28676 10.925,-1.14188 14.5,-1.90028 3.575,-0.75839 13.1375,-1.58305 21.25,-1.83256 l 14.75,-0.45366 -0.0209,3.64588 c -0.0115,2.00524 -0.67247,9.04589 -1.4688,15.64589 -0.79634,6.6 -1.46192,12.5625 -1.47908,13.25 -0.0187,0.75156 -1.40208,1.25 -3.46914,1.25 -1.89087,0 -6.27837,0.63908 -9.75,1.42017 -3.47163,0.78109 -12.83705,1.91822 -20.81205,2.52695 -18.12195,1.38324 -32.2112,2.76673 -47,4.61517 -6.325,0.79056 -17.13534,2.09633 -24.02298,2.90172 -20.52919,2.40053 -43.40383,8.14195 -54.02325,13.55958 -2.17461,1.10938 -3.9538,1.64244 -3.9538,1.18456 z m -48.83333,43.95045 c 0.18333,-0.46278 4.20411,-4.17528 8.93506,-8.25 17.97848,-15.48472 30.47348,-26.28778 32.49463,-28.09456 1.15301,-1.0307 6.32801,-3.39642 11.5,-5.25715 5.172,-1.86074 11.87864,-4.28619 14.90364,-5.3899 9.68843,-3.53495 28.02081,-7.0586 45.5,-8.74551 26.71035,-2.5778 31.69217,-3.16545 36.5,-4.30552 2.475,-0.58689 8.41663,-1.07807 13.20361,-1.09151 4.78699,-0.0134 16.66469,-1.14945 26.39488,-2.52445 9.7302,-1.375 18.50801,-2.5 19.50625,-2.5 1.2519,0 2.1878,1.24439 3.01672,4.01108 1.68201,5.61403 -0.68672,29.70199 -3.03979,30.91219 -0.86992,0.4474 -9.73172,1.11254 -19.69289,1.47809 -9.96117,0.36555 -21.66117,1.08729 -26,1.60387 -4.33883,0.51658 -17.11378,1.85352 -28.38878,2.97098 -18.13609,1.79746 -50.96426,6.66314 -87.5,12.96896 -11.93655,2.06017 -32.65137,7.60242 -41.78702,11.18013 -5.38772,2.10995 -6.01947,2.22764 -5.54631,1.0333 z m -104.25905,41.22426 c -3.59007,-4.34063 0.44834,-21.17965 8.66127,-36.115 2.0469,-3.72232 5.73372,-10.59286 8.19294,-15.26786 2.45921,-4.675 5.47415,-10.075 6.69986,-12 3.48096,-5.46694 15.81742,-23.92702 18.03831,-26.99225 4.87221,-6.72455 13.48251,-17.89249 17.07884,-22.15202 2.15664,-2.55435 5.94616,-7.21996 8.42116,-10.36802 2.475,-3.14807 7.45043,-9.15814 11.05652,-13.35573 3.60608,-4.19759 8.60855,-10.33198 11.11659,-13.63198 5.56293,-7.3195 20.32952,-21.59435 36.20571,-35 23.92323,-20.20047 27.91359,-23.5 28.42025,-23.5 0.28447,0 -11.02904,11.29394 -25.14115,25.09764 -24.71446,24.17437 -31.38919,31.57934 -47.65792,52.8719 -4.125,5.39881 -9.43429,12.22677 -11.79842,15.17324 -7.58802,9.45712 -13.88081,18.30814 -16.07666,22.61236 -1.17606,2.30527 -5.86989,10.16593 -10.43073,17.46813 -16.13132,25.8273 -27.16641,46.17728 -36.2107,66.77673 -4.46721,10.1746 -4.77229,10.56351 -6.57587,8.38286 z m 9.33828,4.39091 c -3.61954,-1.73913 -2.48818,-9.68037 2.31846,-16.27377 1.20287,-1.65 3.25547,-5.4506 4.56133,-8.44578 4.2011,-9.63578 12.39494,-25.26171 17.23588,-32.86943 2.5839,-4.0607 3.5654,-5.73797 9.1784,-15.68479 2.45103,-4.34347 15.05685,-23.29016 26.00613,-39.08748 3.77876,-5.45189 12.51424,-16.52514 19.41218,-24.60723 6.89795,-8.08208 14.11672,-16.85618 16.04172,-19.49798 3.11622,-4.2766 12.51993,-14.4337 26.0793,-28.1687 8.23589,-8.34256 41.30406,-39.83618 46.31141,-44.10627 2.68988,-2.29384 6.06488,-4.92244 7.5,-5.84134 1.43511,-0.91889 5.75932,-4.15028 9.60936,-7.18086 11.54496,-9.08768 10.44672,-8.4102 32.87587,-20.28042 10.14513,-5.36913 35.044,-13.73907 40.62406,-13.65608 3.43106,0.051 4.02492,0.27108 2.5,0.92636 -1.1,0.47269 -3.14544,0.89106 -4.54542,0.92971 -1.39998,0.0387 -6.57498,2.03858 -11.5,4.44427 -4.92502,2.40569 -10.52958,4.70765 -12.45458,5.11547 -1.925,0.40782 -3.95,1.04668 -4.5,1.41969 -0.55,0.37301 -3.475,1.51117 -6.5,2.52925 -3.025,1.01808 -6.175,2.39815 -7,3.06683 -0.825,0.66868 -4.50785,2.8757 -8.18411,4.9045 -3.67627,2.0288 -9.52627,5.92471 -13,8.65758 -12.44355,9.78964 -18.24562,14.50151 -23.31327,18.9327 -2.83048,2.475 -10.70847,9.225 -17.50665,15 -15.68244,13.32212 -34.60016,32.04403 -43.44974,43 -3.77619,4.675 -9.39601,11.425 -12.4885,15 -7.35006,8.49688 -11.29281,13.69823 -13.64441,18 -1.05232,1.925 -3.99831,6.2 -6.54664,9.5 -2.54833,3.3 -5.86524,8.20904 -7.3709,10.90898 -1.50566,2.69994 -5.3177,8.09994 -8.4712,12 -7.15519,8.84912 -18.3779,28.06053 -25.55485,43.74565 -3.00835,6.57472 -5.46973,12.17578 -5.46973,12.44679 0,0.27102 -3.11967,5.98407 -6.9326,12.69567 -3.81293,6.7116 -9.36111,16.90231 -12.3293,22.64601 -2.96819,5.74371 -5.81102,10.54899 -6.3174,10.67842 -0.50639,0.12942 -1.93505,-0.25206 -3.1748,-0.84775 z m 23.7541,4.87518 c 0,-0.26721 1.6875,-1.51856 3.75,-2.78079 2.0625,-1.26222 6.96532,-4.78642 10.89515,-7.83156 21.26083,-16.47451 38.18594,-27.80266 47.35485,-31.69509 19.16702,-8.13687 45.40875,-15.58633 61,-17.3166 5.775,-0.64089 14.325,-2.0771 19,-3.19158 4.675,-1.11448 10.75,-2.39472 13.5,-2.84497 2.75,-0.45026 7.7,-1.51094 11,-2.35707 6.78266,-1.73909 23.29656,-3.74084 34.5,-4.18195 7.01919,-0.27637 13.68656,-0.97179 32,-3.33767 10.9487,-1.41444 46.66563,-2.46171 47.32937,-1.38776 0.80094,1.29595 -1.15221,14.9393 -2.92504,20.43229 -0.82651,2.56091 -1.73297,5.92578 -2.01435,7.47747 -0.28137,1.5517 -0.6461,2.95578 -0.8105,3.12018 -0.9597,0.9597 -11.96312,4.24615 -14.21661,4.24615 -1.4779,0 -4.97664,0.64544 -7.77498,1.4343 -25.55728,7.20474 -53.11344,11.68147 -71.58789,11.63005 -16.29441,-0.0454 -40.09016,1.97628 -69.5,5.90457 -13.10409,1.75032 -54.43655,9.15566 -61.5,11.01866 -4.125,1.08798 -8.85089,1.98586 -10.50198,1.99528 -5.71798,0.0326 -24.02257,4.00572 -29.49802,6.40265 -6.30277,2.7591 -10,3.96566 -10,3.26344 z m -15.3131,1.55758 c -2.2024,-2.43363 -2.14585,-2.91604 0.79366,-6.76993 1.3643,-1.7887 3.15379,-5.23513 3.97662,-7.65873 0.82284,-2.42361 4.80786,-10.4526 8.8556,-17.84221 4.04775,-7.38961 9.93236,-18.78959 13.07691,-25.33329 3.14455,-6.54369 6.96725,-13.74369 8.49487,-16 1.52763,-2.2563 4.61419,-7.92737 6.85902,-12.60237 2.24482,-4.675 5.69586,-10.6105 7.66896,-13.19001 1.9731,-2.5795 3.58746,-5.01294 3.58746,-5.40763 0,-0.39469 1.72715,-3.00918 3.83812,-5.80999 2.11097,-2.8008 4.69847,-6.49812 5.75,-8.21626 1.05153,-1.71814 3.11179,-4.91215 4.57835,-7.09781 l 2.66647,-3.97392 14.83353,-0.68454 c 14.60815,-0.67414 32.53025,0.77515 42.51309,3.43787 4.98344,1.32923 16.82044,6.93077 16.82044,7.95982 0,0.45596 -1.02507,2.10105 -2.27793,3.65574 -4.13215,5.12766 -7.49424,10.72121 -11.22584,18.67658 -2.68298,5.71982 -4.51093,8.29761 -6.73657,9.5 -1.67995,0.90758 -5.17358,3.45015 -7.76362,5.65015 -8.14749,6.92053 -29.9957,25.85575 -33.82571,29.31577 -2.01868,1.82368 -6.68622,4.85595 -10.37231,6.73839 -3.68609,1.88244 -8.18609,4.68512 -10,6.22817 -1.81391,1.54306 -4.64802,3.64883 -6.29802,4.6795 -2.90022,1.81161 -14.51124,10.25274 -29,21.08279 -6.54173,4.88981 -20.69529,13.82562 -23.76344,15.00298 -0.74951,0.28761 -2.12186,-0.31587 -3.04966,-1.34107 z m 9.22513,18.07541 c -0.95726,-0.22074 -2.02165,-2.23608 -2.67984,-5.07406 -0.60053,-2.58933 -1.3719,-5.43107 -1.71417,-6.31496 -0.43977,-1.13568 0.19964,-1.92238 2.17983,-2.68198 6.18893,-2.37405 21.33526,-6.25704 30.30215,-7.7684 5.225,-0.88066 17.63617,-3.57747 27.58038,-5.99289 9.94421,-2.41543 22.31921,-4.90042 27.5,-5.52221 11.47747,-1.37751 11.71198,-1.41681 20.41962,-3.42217 3.85,-0.88665 10.6,-2.04694 15,-2.57841 4.4,-0.53148 12.95,-1.60878 19,-2.39402 21.34078,-2.76983 30.15131,-3.44003 44.83828,-3.41076 22.46052,0.0448 48.23674,-3.53894 68.66172,-9.54613 6.23522,-1.83385 27.19676,-5.71252 27.77066,-5.13862 0.77585,0.77585 -2.7181,6.1726 -5.93534,9.1677 -1.83443,1.70777 -5.47827,4.54564 -8.09743,6.30637 -4.31099,2.89808 -7.61804,4.13718 -25.73789,9.6436 -3.025,0.91926 -7.975,2.56269 -11,3.65206 -3.025,1.08937 -11.55937,3.03208 -18.96526,4.31712 -7.40589,1.28504 -15.28089,2.80715 -17.5,3.38246 -7.86791,2.03978 -29.98221,5.19624 -42.84639,6.11563 -7.17537,0.51282 -16.22813,1.66404 -20.11724,2.55827 -3.88911,0.89423 -11.57111,2.66092 -17.07111,3.92596 -5.5,1.26505 -17.2,3.03041 -26,3.92303 -8.8,0.89261 -19.6798,2.12856 -24.17733,2.74654 -4.49753,0.61798 -11.51899,0.87087 -15.60325,0.56198 -4.5194,-0.3418 -10.22985,-0.0274 -14.58974,0.80338 -3.94011,0.75076 -11.99364,1.66577 -17.89675,2.03337 -5.90311,0.3676 -10.95793,0.75948 -11.23293,0.87084 -0.275,0.11137 -1.21459,0.0377 -2.08797,-0.1637 z m 10.98901,2.66968 c 6.27057,-0.44584 12.34557,-1.04207 13.5,-1.32496 1.15443,-0.28288 7.72396,-0.79521 14.59896,-1.13851 6.875,-0.34329 14.75,-1.02155 17.5,-1.50725 2.75,-0.48569 10.4,-1.18777 17,-1.56016 6.6,-0.3724 13.125,-1.13704 14.5,-1.6992 1.375,-0.56215 5.875,-1.14771 10,-1.30123 4.125,-0.15352 11.1,-1.01732 15.5,-1.91956 13.72264,-2.81387 19.59884,-3.62224 32.5,-4.4709 6.875,-0.45225 13.4,-1.06362 14.5,-1.35861 1.1,-0.29499 6.275,-1.05529 11.5,-1.68956 10.2916,-1.24932 22.8657,-3.96455 29.97426,-6.4726 2.45849,-0.8674 8.75753,-2.25734 13.99786,-3.08873 5.24034,-0.8314 11.77788,-2.33735 14.52788,-3.34656 2.75,-1.00921 7.025,-2.15715 9.5,-2.55098 6.88287,-1.09523 20.71937,-6.20698 24.39995,-9.0143 1.80886,-1.37968 3.69656,-2.50851 4.19488,-2.50851 1.54971,0 8.94374,-7.30129 11.64609,-11.5 2.74371,-4.26299 5.94512,-14.17471 7.75182,-24 0.60681,-3.3 1.52764,-8.025 2.04629,-10.5 0.51865,-2.475 1.20127,-8.325 1.51692,-13 0.31566,-4.675 0.99932,-10.525 1.51926,-13 0.51994,-2.475 1.14184,-13.5 1.382,-24.5 0.24016,-11 0.93006,-22.475 1.5331,-25.5 0.99325,-4.9824 0.63431,-37.85662 -0.47497,-43.5 -0.43061,-2.1907 0.5595,-12.80333 2.55318,-27.3667 1.03274,-7.54396 1.03874,-10.81602 0.0308,-16.81453 -1.57063,-9.34736 -4.419,-17.71362 -7.39598,-21.72361 -1.2638,-1.70234 -3.62657,-5.72384 -5.25059,-8.93667 -4.45583,-8.81506 -9.36318,-13.83156 -17.63837,-18.03064 -6.67049,-3.38481 -8.24101,-3.76071 -17.84025,-4.27006 -10.1494,-0.53854 -10.93623,-0.42595 -22,3.14796 -24.75112,7.99532 -28.80227,9.68999 -39.61562,16.57195 -5.97219,3.80089 -12.43352,7.76705 -14.35852,8.8137 -1.925,1.04664 -7.27194,4.76174 -11.8821,8.25579 -4.61015,3.49405 -13.38515,9.79711 -19.5,14.0068 -6.11484,4.2097 -11.5679,8.0448 -12.1179,8.52246 -1.70883,1.48407 -30.35963,25.48651 -38.38255,32.15529 -12.31617,10.2374 -23.79922,21.84668 -34.29129,34.66826 -5.40087,6.6 -13.68847,16.725 -18.4169,22.5 -4.72842,5.775 -9.80355,11.85 -11.27805,13.5 -4.73352,5.29693 -22.299,29.32257 -26.63121,36.42555 -0.55,0.90176 -3.40964,5.386 -6.35475,9.96497 -2.94511,4.57898 -6.5139,10.86432 -7.93064,13.96744 -1.41674,3.10312 -3.99728,7.89204 -5.73454,10.64204 -1.73726,2.75 -4.3948,7.7 -5.90566,11 -11.41338,24.92906 -10.33977,35.57427 3.92559,38.9237 4.37171,1.02646 13.5,10.3007 13.5,13.71585 0,1.48933 0.53431,5.02264 1.18736,7.8518 1.04915,4.54518 1.42745,5.06401 3.25,4.4574 1.13445,-0.37758 7.19311,-1.0513 13.46368,-1.49713 z m -6.3692,47.79209 c 1.5541,-5.2624 5.57464,-9.768 11.22516,-12.57946 12.85366,-6.39543 27.07667,-12.11327 32.55087,-13.08586 3.19432,-0.56754 6.16142,-1.25039 6.59354,-1.51746 0.43213,-0.26707 5.24359,-1.43821 10.69214,-2.60255 5.44855,-1.16433 14.18145,-3.42233 19.40645,-5.01777 12.43778,-3.79785 21.57252,-5.6352 32,-6.43643 13.11882,-1.00803 29.81873,-3.23582 37,-4.93586 8.53798,-2.02121 23.43376,-2.03277 29.12427,-0.0226 2.40665,0.85015 8.65073,1.97215 13.87573,2.49333 5.225,0.52119 12.65,1.65299 16.5,2.51512 3.85,0.86213 10.50257,2.1552 14.7835,2.8735 11.20221,1.8796 10.81834,2.84819 -0.78851,1.98961 -5.49725,-0.40664 -10.44499,-0.71364 -10.99499,-0.68222 -0.55,0.0314 -10.675,0.34906 -22.5,0.70588 -11.825,0.35681 -24.23964,1.07557 -27.5881,1.59723 -3.34845,0.52166 -9.64845,0.92916 -14,0.90556 -4.35154,-0.0236 -11.2869,0.41117 -15.4119,0.96617 -4.125,0.555 -11.1,1.49402 -15.5,2.08671 -4.4,0.59269 -11.375,1.7064 -15.5,2.4749 -4.125,0.7685 -8.4,1.3143 -9.5,1.21288 -3.85004,-0.35497 -23.95801,4.9007 -46,12.02314 -6.05,1.95493 -13.025,4.13174 -15.5,4.83735 -6.99497,1.99422 -15.46353,5.21067 -21.79796,8.27911 -9.20325,4.45812 -9.43501,4.50943 -8.6702,1.91971 z m 288.39211,10.8231 c -14.36151,-6.94015 -33.04398,-12.77463 -53.42395,-16.68414 -15.01103,-2.87957 -18.98897,-3.26288 -34,-3.27616 -28.03753,-0.0248 -49.82668,1.88938 -71.26398,6.2606 -2.34519,0.4782 -6.17019,0.52041 -8.5,0.0938 -12.10225,-2.21604 -60.81764,1.20751 -77.47968,5.445 -9.33584,2.37429 -20.3115,4.4656 -31.89935,6.07813 -5.97135,0.83095 -12.10892,2.02255 -13.63906,2.64799 -1.53013,0.62545 -3.02581,0.89342 -3.32373,0.5955 -1.15677,-1.15677 2.66435,-6.52541 5.07509,-7.13047 1.39652,-0.3505 5.93478,-2.24906 10.08503,-4.21902 4.15025,-1.96996 9.88586,-4.17402 12.7458,-4.89792 2.85993,-0.72389 8.34988,-2.52075 12.19988,-3.99301 8.84027,-3.38056 24.61909,-8.31356 30.5,-9.53534 2.475,-0.51419 8.775,-1.81568 14,-2.89221 5.225,-1.07652 12.82856,-2.6751 16.8968,-3.55239 6.62847,-1.42938 13.81029,-2.52432 36.50582,-5.56566 3.79644,-0.50875 9.19644,-0.8848 12,-0.83567 2.80356,0.0491 9.82238,-0.38119 15.59738,-0.95628 10.2899,-1.02468 41.65007,-2.36634 55.5,-2.37441 20.69121,-0.0121 32.24334,2.58473 50,11.23948 6.22706,3.03512 9.68097,5.62635 15.585,11.69232 4.17176,4.28618 8.93734,9.59305 10.59019,11.79305 3.61708,4.81446 7.71011,12.90642 7.19574,14.22604 -0.20401,0.52339 -5.13015,-1.34826 -10.94698,-4.15923 z m 9.57605,54.83492 c -7.61388,-5.88074 -17.23798,-11.68199 -30.5,-18.38489 -4.675,-2.36284 -8.95,-4.61202 -9.5,-4.99817 -0.55,-0.38615 -2.8543,-1.42139 -5.12067,-2.30054 -2.26637,-0.87914 -6.99137,-2.95163 -10.5,-4.60553 -8.47527,-3.99508 -28.22113,-8.66891 -44.87933,-10.62292 -7.425,-0.87096 -17.55864,-2.47082 -22.5192,-3.55526 -7.45079,-1.62884 -10.62539,-1.83079 -18.25571,-1.16136 l -9.23652,0.81036 -2.89127,-3.04171 c -5.98627,-6.29775 -13.25461,-16.82646 -12.10597,-17.53635 2.37955,-1.47065 24.3833,-4.10349 45.50867,-5.44531 24.5371,-1.55852 42.24408,-0.56435 58.57908,3.28895 4.63151,1.09254 10.40009,2.29928 12.81907,2.68165 2.41898,0.38236 5.97325,1.35332 7.89838,2.15769 1.92512,0.80437 7.37095,2.58151 12.10185,3.94921 4.73089,1.36769 14.33019,5.48169 21.33177,9.14222 12.34812,6.45577 12.77898,6.79152 14.35703,11.18787 2.71186,7.55503 3.19976,44.31056 0.58323,43.93653 -0.36873,-0.0527 -3.82041,-2.52881 -7.67041,-5.50244 z m -152.5,14.50739 c -1.925,-0.48739 -10.94772,-0.60393 -20.0505,-0.25898 l -16.55049,0.62717 -2.94951,-3.29698 c -9.11963,-10.194 -15.86267,-16.02532 -24.4495,-21.14371 -13.41619,-7.99704 -28.94519,-15.83344 -40.01631,-20.19343 -5.21603,-2.05416 -10.83369,-4.45485 -12.48369,-5.33487 -1.65,-0.88002 -6.6,-3.53076 -11,-5.89053 -4.4,-2.35977 -11.0375,-5.04884 -14.75,-5.97571 -6.98168,-1.74307 -8.79559,-3.35628 -4,-3.55743 1.5125,-0.0634 3.2,-0.19715 3.75,-0.29713 0.55,-0.1 3.25,-0.55373 6,-1.00835 2.75,-0.45461 10.175,-1.92396 16.5,-3.2652 6.325,-1.34125 13.75,-2.8312 16.5,-3.311 2.75,-0.47979 8.15,-1.59767 12,-2.48417 12.63908,-2.91026 30.64496,-4.59473 48.90049,-4.5747 l 17.9005,0.0196 5.47927,3.76813 c 3.0136,2.07247 7.3958,6.24313 9.73823,9.26813 2.34243,3.025 7.69893,8.875 11.90335,13 10.01728,9.82811 16.57816,21.41596 16.57816,29.28044 0,5.90225 -2.08383,14.86002 -4.97988,21.40701 -1.83711,4.15311 -2.06691,4.3088 -6.21389,4.21023 -2.36843,-0.0563 -5.88123,-0.50113 -7.80623,-0.98852 z m 147.42362,33.31413 c -3.97141,-3.62738 -16.36006,-13.72672 -25.42362,-20.72557 -4.57683,-3.53421 -16.02419,-11.3469 -26.03614,-17.76936 -5.9438,-3.81283 -26.538,-13.594 -39.27327,-18.65275 -4.29518,-1.70615 -10.10963,-4.2677 -12.92101,-5.69233 -2.81138,-1.42463 -9.10411,-3.59949 -13.98385,-4.833 -7.90425,-1.99807 -9.05846,-2.58565 -10.57899,-5.38551 -0.93871,-1.72851 -4.11846,-5.87346 -7.06612,-9.21102 -2.94766,-3.33755 -5.14921,-6.27845 -4.89234,-6.53533 1.18292,-1.18292 13.81418,-1.51427 18.75172,-0.49191 3.025,0.62635 13.825,2.2361 24,3.57722 29.67456,3.91127 38.53468,6.71486 68.48946,21.67201 12.81666,6.39968 34.65386,20.03021 40.36468,25.19518 2.18536,1.97648 2.30813,2.63097 1.71248,9.12912 -0.74399,8.1166 -6.79909,32.75688 -8.15068,33.16794 -0.50377,0.15321 -2.75031,-1.3969 -4.99232,-3.44469 z m -13.84664,38.01928 c -0.56208,-1.77095 -4.68679,-6.44155 -15.95111,-18.06218 -8.5497,-8.82014 -28.75344,-23.89281 -37.17113,-27.73091 -3.87489,-1.76679 -9.49989,-4.77466 -12.5,-6.68417 -8.79435,-5.59744 -34.39984,-15.19107 -46.21579,-17.31572 -2.06857,-0.37195 -3.96668,-1.009 -4.21801,-1.41566 -0.25133,-0.40667 0.67309,-4.29316 2.05426,-8.63664 1.38117,-4.34349 2.78108,-11.38475 3.11091,-15.64725 0.32982,-4.2625 0.99432,-7.75 1.47665,-7.75 0.48234,0 3.68054,1.15514 7.10711,2.56698 3.42657,1.41184 10.75073,4.06299 16.27591,5.89143 10.71062,3.54447 32.33507,12.98795 38.95422,17.01146 2.2,1.33729 6.54679,3.78957 9.65954,5.44951 13.90091,7.41298 46.89936,33.73712 52.95956,42.24788 l 2.0686,2.90508 -3.52202,7.41636 c -4.67061,9.83499 -11.5329,21.5113 -12.6424,21.5113 -0.48868,0 -1.13951,-0.79086 -1.4463,-1.75747 z m -191.18681,46.76562 c -2.13959,-1.67466 -9.39446,-7.07837 -16.12192,-12.00824 -14.75248,-10.8106 -26.77335,-22.5903 -32.96848,-32.30704 -2.52229,-3.95608 -5.60393,-8.31787 -6.8481,-9.69287 -5.04428,-5.57474 -26.14166,-36.9689 -28.02363,-41.70084 -0.83104,-2.08954 -4.41979,-9.64916 -7.97498,-16.79916 -5.4262,-10.91285 -6.79945,-14.76605 -8.55338,-24 -1.78573,-9.40135 -1.93026,-11.97265 -0.99453,-17.69263 0.60217,-3.68094 1.10174,-8.40594 1.11016,-10.5 0.0239,-5.95256 1.51283,-7.27495 3.01405,-2.67701 1.41564,4.33582 4.00953,10.16586 11.11795,24.98872 2.66898,5.5655 4.85269,10.55371 4.85269,11.08491 0,0.53119 2.32457,4.75261 5.1657,9.38091 5.81098,9.46626 13.32979,22.96962 18.60589,33.4151 5.07941,10.05609 11.85638,21.43986 19.99038,33.57931 3.89875,5.81862 8.52501,13.01862 10.28058,16 3.71926,6.31621 13.10025,18.56063 24.29651,31.71272 4.35062,5.11061 7.69221,9.51004 7.42575,9.77649 -0.26646,0.26646 -2.23504,-0.88571 -4.37464,-2.56037 z M 378.6919,628.7546 c -7.32267,-11.76492 -28.2117,-42.22971 -42.7382,-62.32985 -8.61248,-11.91698 -22.05373,-29.04218 -29.93921,-38.14488 l -7.57995,-8.75 5.40262,0 c 11.16967,0 26.54127,4.53391 41.11654,12.12749 2.2,1.14618 7.15,3.727 11,5.73517 3.85,2.00817 10.27638,5.17858 14.28086,7.04536 4.00447,1.86679 9.17947,5.04449 11.5,7.06157 2.32052,2.01707 6.46914,5.18542 9.21914,7.04077 11.08994,7.48207 20.0088,16.93662 28.99797,30.73964 l 2.7678,4.25 -2.65956,4.01887 c -1.46276,2.21038 -4.78506,6.46611 -7.38289,9.45718 -2.59782,2.99106 -7.19832,8.48683 -10.22332,12.2128 -3.025,3.72597 -8.21642,9.63304 -11.53648,13.12681 l -6.03648,6.35232 -6.18884,-9.94325 z m -32.39365,23.9629 c -2.66975,-6.79644 -4.8571,-10.79436 -15.9692,-29.18763 -3.82119,-6.325 -8.91686,-14.2 -11.32372,-17.5 -5.58013,-7.6508 -12.70671,-18.14386 -25.12932,-37 -5.43518,-8.25 -12.61269,-18.375 -15.95001,-22.5 -8.29594,-10.25395 -20.69136,-27.11427 -20.25486,-27.55077 0.84762,-0.84762 33.44101,-0.74862 34.94839,0.10615 3.27163,1.85519 17.8906,19.25199 34.83417,41.45319 3.025,3.96366 7.6947,9.97074 10.3771,13.34905 8.8935,11.20077 39.93113,58.01215 41.91233,63.21276 1.80885,4.74819 1.64904,5.08756 -4.28943,9.10877 -8.97399,6.0767 -13.99002,7.90459 -24.27489,8.84601 -3.37146,0.30861 -3.94996,0.0315 -4.88056,-2.33753 z m -73.34455,0.34637 c -4.95,-1.25133 -10.86109,-2.97028 -13.13575,-3.8199 -4.6519,-1.73755 -11.84145,-6.05918 -12.88252,-7.74366 -0.37751,-0.61083 -1.63525,-1.4616 -2.79497,-1.89061 -1.15973,-0.42901 -4.15118,-3.94524 -6.64768,-7.81384 -4.06946,-6.3061 -9.08205,-12.68255 -18.28959,-23.26599 -1.67474,-1.925 -3.66477,-4.85 -4.42229,-6.5 -1.37207,-2.9886 -11.75281,-18.65126 -21.23706,-32.04286 -2.74335,-3.87358 -6.34569,-9.94858 -8.0052,-13.5 -1.6595,-3.55143 -4.0753,-8.25714 -5.36845,-10.45714 -19.40111,-33.00678 -42.71649,-79.7318 -42.71649,-85.60566 0,-1.73451 0.69867,-1.56878 7.25,1.71973 3.9875,2.00156 8.86164,5.04472 10.83143,6.76257 3.30203,2.87969 13.54278,10.71704 26.79873,20.50934 22.2066,16.40422 64.55935,66.99524 77.54964,92.63424 2.51361,4.96112 4.5702,9.33456 4.5702,9.71877 0,0.92519 11.2671,23.54912 18.30761,36.76101 7.49194,14.05903 10.35384,20.18211 11.17014,23.89868 l 0.68116,3.10132 -6.32945,-0.0954 c -3.48121,-0.0525 -10.37946,-1.11928 -15.32946,-2.3706 z m 51.42224,5.05491 c -0.39212,-0.39213 -7.85118,-0.88346 -23.07346,-1.51988 -1.67899,-0.0702 -5.02497,-4.88877 -6.38532,-9.19556 -0.77071,-2.44003 -15.31045,-32.53306 -28.86067,-59.73321 -10.09446,-20.26319 -19.25312,-33.49851 -42.60279,-61.56593 -18.47266,-22.20503 -27.72789,-31.18265 -47.36315,-45.94252 -5.02527,-3.7775 -11.16185,-8.52605 -13.63685,-10.55232 -2.475,-2.02628 -7.79694,-5.61365 -11.82654,-7.97194 -4.0296,-2.35829 -7.15633,-4.45801 -6.9483,-4.66605 0.96002,-0.96001 13.66464,3.84937 20.70383,7.83751 4.29856,2.43541 11.36055,5.89633 15.69329,7.69093 4.33275,1.79461 11.47772,5.07858 15.87772,7.29771 4.4,2.21914 10.25,5.1378 13,6.48593 10.76983,5.27966 34.5,21.29902 34.5,23.28967 0,0.39231 3.0375,3.9784 6.75,7.96911 10.47249,11.25727 34.69488,42.79478 44.0516,57.35512 9.78621,15.22867 22.36144,33.89858 26.69474,39.63252 8.02701,10.62155 22.50366,36.37658 22.50366,40.03566 0,0.41747 -3.0375,1.26627 -6.75,1.88623 -3.7125,0.61997 -7.89669,1.35697 -9.2982,1.63779 -1.40151,0.28082 -2.76481,0.29398 -3.02956,0.0292 z m 17.73148,1.37055 c 30.63163,-4.4678 36.36055,-7.38987 55.1591,-28.13424 35.82447,-39.53264 52.41904,-70.96484 56.74572,-107.48349 1.86948,-15.77913 2.1551,-49.72212 0.49092,-58.34173 -0.75266,-3.8984 -3.69558,-11.50307 -7.35278,-19 -5.67811,-11.6396 -6.78955,-13.19341 -16.14726,-22.57403 -14.00833,-14.04263 -16.37751,-15.45603 -37.54942,-22.40112 -4.675,-1.53356 -10.3,-3.59129 -12.5,-4.57274 -4.18264,-1.86593 -19.0175,-5.41301 -33.5,-8.00999 -4.675,-0.83832 -13.31572,-2.40574 -19.20159,-3.48317 -14.47502,-2.64968 -25.27106,-2.50892 -39.89159,0.52012 -6.58126,1.36348 -15.66513,2.73561 -20.18637,3.04917 -18.50041,1.28303 -27.05831,2.87092 -50.22045,9.31822 -3.85,1.07166 -12.175,3.17831 -18.5,4.68144 -21.91584,5.20828 -48.76133,16.51944 -52.85665,22.27079 -1.17884,1.65553 -2.14335,3.24195 -2.14335,3.52538 0,0.28343 -2.48625,5.72647 -5.52501,12.09566 -3.03875,6.36918 -5.80207,13.04282 -6.14071,14.8303 -0.33864,1.78748 -1.03448,3.78474 -1.5463,4.43836 -1.28425,1.64 -3.22473,20.17196 -3.08519,29.46409 0.0632,4.20886 0.64757,10.28386 1.29859,13.5 1.46463,7.23559 16.53083,37.71268 24.14752,48.84752 7.73885,11.31342 16.4061,23.32781 20.1519,27.93422 1.75956,2.16383 5.34389,7.19793 7.96517,11.18689 8.09872,12.3243 21.40565,25.23592 37.58572,36.46915 11.22035,7.78987 14.75805,10.32355 20.41062,14.61794 7.81699,5.93875 23.77723,12.86889 33.87541,14.70914 4.59925,0.83814 15.56228,2.2264 24.36228,3.085 8.8,0.85861 16.675,1.71963 17.5,1.91338 3.29179,0.77308 6.60874,0.46741 26.65372,-2.45626 z"
       inkscape:connector-curvature="0" />
  </g>
</svg>
