<?xml version="1.0" encoding="UTF-8" standalone="no"?>
<!-- Created with Inkscape (http://www.inkscape.org/) -->

<svg
   xmlns:dc="http://purl.org/dc/elements/1.1/"
   xmlns:cc="http://creativecommons.org/ns#"
   xmlns:rdf="http://www.w3.org/1999/02/22-rdf-syntax-ns#"
   xmlns:svg="http://www.w3.org/2000/svg"
   xmlns="http://www.w3.org/2000/svg"
   xmlns:sodipodi="http://sodipodi.sourceforge.net/DTD/sodipodi-0.dtd"
   xmlns:inkscape="http://www.inkscape.org/namespaces/inkscape"
   width="210mm"
   height="297mm"
   viewBox="0 0 744.09448819 1052.3622047"
   id="svg4419"
   version="1.1"
   inkscape:version="0.91 r13725"
   sodipodi:docname="winglines.svg">
  <defs
     id="defs4421" />
  <sodipodi:namedview
     id="base"
     pagecolor="#ffffff"
     bordercolor="#666666"
     borderopacity="1.0"
     inkscape:pageopacity="0.0"
     inkscape:pageshadow="2"
     inkscape:zoom="18.913899"
     inkscape:cx="628.69259"
     inkscape:cy="670.07532"
     inkscape:document-units="px"
     inkscape:current-layer="layer1"
     showgrid="false"
     inkscape:window-width="1536"
     inkscape:window-height="809"
     inkscape:window-x="-8"
     inkscape:window-y="-8"
     inkscape:window-maximized="1" />
  <metadata
     id="metadata4424">
    <rdf:RDF>
      <cc:Work
         rdf:about="">
        <dc:format>image/svg+xml</dc:format>
        <dc:type
           rdf:resource="http://purl.org/dc/dcmitype/StillImage" />
        <dc:title />
      </cc:Work>
    </rdf:RDF>
  </metadata>
  <g
     inkscape:label="Layer 1"
     inkscape:groupmode="layer"
     id="layer1">
    <path
       style="opacity:1;fill:none;fill-rule:evenodd;stroke:#000000;stroke-width:1;stroke-linecap:butt;stroke-linejoin:miter;stroke-miterlimit:4;stroke-dasharray:none;stroke-opacity:1"
       d="m 691.6682,426.15662 c -26.56305,69.53268 -31.25064,82.03293 -31.25064,82.03293 -21.09419,73.43901 -21.09419,80.4704 -21.09419,80.4704 -8.59392,66.40761 -7.03139,55.46989 -7.03139,55.46989 -16.40659,42.18837 -22.65671,51.56356 -22.65671,51.56356 -19.53165,7.03139 -14.84406,4.68759 -14.84406,4.68759 -17.96912,17.18786 -16.40658,22.65672 -16.40658,22.65672 0,13.28152 -7.81266,26.56304 -7.81266,26.56304 -22.65672,10.15646 -28.90685,10.93773 -28.90685,10.93773 -18.75038,-7.81266 -28.12557,-8.59393 -28.12557,-8.59393 -5.46887,5.46886 -23.43798,10.15646 -23.43798,10.15646 -14.84406,-2.3438 -21.09419,-9.94283 -21.09419,-9.94283 -8.59392,-13.28152 -13.28152,-17.40148 -13.28152,-17.40148 -3.90633,-3.12507 -22.65671,2.3438 -22.65671,2.3438 -9.3752,3.90633 -20.31292,-5.46887 -20.31292,-5.46887 -2.3438,-21.09418 -6.25012,-37.50076 -6.25012,-37.50076 -7.03139,-10.93773 -16.40658,-13.28153 -16.40658,-13.28153 -14.06279,0.78127 -28.12558,-10.93772 -28.12558,-10.93772 0,-12.50026 -5.46886,-31.25064 -5.46886,-31.25064 -4.6876,-16.40659 -22.65672,-21.87545 -22.65672,-21.87545 -14.06279,-11.71899 -6.25013,-32.03191 -6.25013,-32.03191 5.46887,-27.34431 -4.68759,-37.50077 -4.68759,-37.50077 -21.09419,-19.53165 -7.81267,-40.62583 -7.81267,-40.62583 10.93773,-30.46937 9.3752,-46.87596 9.3752,-46.87596 14.84405,-49.21976 95.31444,-89.06433 95.31444,-89.06433 60.15749,-33.59443 167.9722,-55.46988 167.9722,-55.46988 60.15748,-14.84406 71.87647,-0.78127 71.87647,-0.78127 41.4071,23.43798 34.37571,76.56407 34.37571,76.56407 -0.78127,35.15697 -2.3438,35.15697 -2.3438,35.15697 z"
       id="path3583" />
    <path
       style="opacity:1;fill:none;fill-rule:evenodd;stroke:#000000;stroke-width:1;stroke-linecap:butt;stroke-linejoin:miter;stroke-miterlimit:4;stroke-dasharray:none;stroke-opacity:1"
       d="m 694.63336,421.242 c -41.98532,-42.53777 -67.28821,-65.01161 -67.28821,-65.01161 -37.01338,-33.69875 -142.52914,-2.7622 -142.52914,-2.7622 -71.817,25.96461 -120.43158,71.817 -120.43158,71.817 -48.6146,36.46095 -44.74752,36.46095 -44.74752,36.46095"
       id="path4473"
       inkscape:connector-curvature="0"
       sodipodi:nodetypes="ccccc" />
    <path
       style="opacity:1;fill:none;fill-rule:evenodd;stroke:#000000;stroke-width:1;stroke-linecap:butt;stroke-linejoin:miter;stroke-miterlimit:4;stroke-dasharray:none;stroke-opacity:1"
       d="m 653.99566,378.93639 c -69.05481,18.23047 -108.41142,40.82442 -108.41142,40.82442 -67.94993,6.62926 -127.61329,34.25118 -127.61329,34.25118 -51.37677,17.67804 -110.64291,89.04608 -110.64291,89.04608"
       id="path4471"
       inkscape:connector-curvature="0"
       sodipodi:nodetypes="cccc" />
    <path
       style="opacity:1;fill:none;fill-rule:evenodd;stroke:#000000;stroke-width:1;stroke-linecap:butt;stroke-linejoin:miter;stroke-miterlimit:4;stroke-dasharray:none;stroke-opacity:1"
       d="m 659.15773,382.70351 c -16.02071,28.72681 -20.21138,35.39999 -20.21138,35.39999 -46.40483,72.92188 -96.12429,101.64868 -96.12429,101.64868 -34.80363,12.15364 -33.14631,10.49633 -33.14631,10.49633 l -22.09754,-7.1817 c 0,0 -9.47022,-33.15424 0.53905,-41.98756 12.55404,-11.07911 61.10894,-65.45986 61.10894,-65.45986"
       id="path3585"
       inkscape:connector-curvature="0"
       sodipodi:nodetypes="cccccsc" />
    <path
       style="opacity:1;fill:none;fill-rule:evenodd;stroke:#000000;stroke-width:1;stroke-linecap:butt;stroke-linejoin:miter;stroke-miterlimit:4;stroke-dasharray:none;stroke-opacity:1"
       d="M 680.07056,403.52201 C 642.50474,469.2622 626.24027,518.6473 626.24027,518.6473 613.53418,579.41554 610.21955,667.25326 610.21955,667.25326 l -0.55039,33.21254"
       id="path4467"
       inkscape:connector-curvature="0"
       sodipodi:nodetypes="cccc" />
    <path
       style="opacity:1;fill:none;fill-rule:evenodd;stroke:#000000;stroke-width:1;stroke-linecap:butt;stroke-linejoin:miter;stroke-miterlimit:4;stroke-dasharray:none;stroke-opacity:1"
       d="m 590.57052,476.91013 c -17.12559,77.34139 -22.33629,153.32975 -22.33629,153.32975 -6.07683,81.20846 -27.20811,132.53294 -27.20811,132.53294"
       id="path4465"
       inkscape:connector-curvature="0"
       sodipodi:nodetypes="ccc" />
    <path
       style="opacity:1;fill:none;fill-rule:evenodd;stroke:#000000;stroke-width:1;stroke-linecap:butt;stroke-linejoin:miter;stroke-miterlimit:4;stroke-dasharray:none;stroke-opacity:1"
       d="m 488.92222,481.76695 c -79.55113,30.93655 -115.14634,65.60715 -115.14634,65.60715 -37.56581,30.93656 -47.36284,79.96506 -47.36284,79.96506"
       id="path4463"
       inkscape:connector-curvature="0"
       sodipodi:nodetypes="ccc" />
    <path
       style="opacity:1;fill:none;fill-rule:evenodd;stroke:#000000;stroke-width:1;stroke-linecap:butt;stroke-linejoin:miter;stroke-miterlimit:4;stroke-dasharray:none;stroke-opacity:1"
       d="m 488.86129,521.50883 c -57.45361,54.69141 -90.77811,92.71033 -90.77811,92.71033 -27.62193,37.56582 -34.90711,70.16804 -34.90711,70.16804"
       id="path4461"
       inkscape:connector-curvature="0"
       sodipodi:nodetypes="ccc" />
    <path
       style="opacity:1;fill:none;fill-rule:evenodd;stroke:#000000;stroke-width:1;stroke-linecap:butt;stroke-linejoin:miter;stroke-miterlimit:4;stroke-dasharray:none;stroke-opacity:1"
       d="M 510.65527,528.60978 C 463.14556,628.04871 410.5152,736.67758 410.5152,736.67758"
       id="path4459"
       inkscape:connector-curvature="0"
       sodipodi:nodetypes="cc" />
    <path
       style="opacity:1;fill:none;fill-rule:evenodd;stroke:#000000;stroke-width:1;stroke-linecap:butt;stroke-linejoin:miter;stroke-miterlimit:4;stroke-dasharray:none;stroke-opacity:1"
       d="m 543.87031,517.19046 c -30.38412,109.93526 -46.34821,195.36275 -46.34821,195.36275 -4.33172,50.21383 -8.64143,52.60788 -8.64143,52.60788"
       id="path3589"
       inkscape:connector-curvature="0"
       sodipodi:nodetypes="ccc" />
  </g>
</svg>
